<svg width="150" height="150" viewBox="0 0 150 150" fill="none" xmlns="http://www.w3.org/2000/svg">
<rect x="56.25" y="37.5" width="37.5" height="81.25" fill="white"/>
<path d="M92.5 28.8304L134.381 98.5866C140.4 108.605 137.444 121.787 127.775 128.024C124.53 130.125 120.747 131.245 116.881 131.249H33.1125C21.7313 131.249 12.5 121.687 12.5 109.88C12.5 105.887 13.5813 101.98 15.6125 98.5866L57.5 28.8304C63.5125 18.8116 76.225 15.7429 85.8938 21.9804C88.5688 23.7054 90.8313 26.0491 92.5 28.8304ZM75 106.249C76.6576 106.249 78.2473 105.591 79.4194 104.419C80.5915 103.246 81.25 101.657 81.25 99.9991C81.25 98.3415 80.5915 96.7518 79.4194 95.5797C78.2473 94.4076 76.6576 93.7491 75 93.7491C73.3424 93.7491 71.7527 94.4076 70.5806 95.5797C69.4085 96.7518 68.75 98.3415 68.75 99.9991C68.75 101.657 69.4085 103.246 70.5806 104.419C71.7527 105.591 73.3424 106.249 75 106.249ZM75 49.9991C73.3424 49.9991 71.7527 50.6576 70.5806 51.8297C69.4085 53.0018 68.75 54.5915 68.75 56.2491V81.2491C68.75 82.9067 69.4085 84.4964 70.5806 85.6685C71.7527 86.8406 73.3424 87.4991 75 87.4991C76.6576 87.4991 78.2473 86.8406 79.4194 85.6685C80.5915 84.4964 81.25 82.9067 81.25 81.2491V56.2491C81.25 54.5915 80.5915 53.0018 79.4194 51.8297C78.2473 50.6576 76.6576 49.9991 75 49.9991Z" fill="#CB3A31"/>
</svg>
