<svg width="41" height="40" viewBox="0 0 41 40" fill="none" xmlns="http://www.w3.org/2000/svg">
<path fill-rule="evenodd" clip-rule="evenodd" d="M17.5 9.25C17.9142 9.25 18.25 9.58579 18.25 10V11.2606C18.9192 11.25 19.6628 11.25 20.4889 11.25H20.5111C21.3372 11.25 22.0808 11.25 22.75 11.2606V10C22.75 9.58579 23.0858 9.25 23.5 9.25C23.9142 9.25 24.25 9.58579 24.25 10V11.3136C25.7619 11.4084 26.9234 11.6533 27.8798 12.3482C28.3679 12.7028 28.7972 13.1321 29.1518 13.6202C29.7377 14.4266 30 15.3709 30.1263 16.5365C30.25 17.6786 30.25 19.1182 30.25 20.9547V21.0115C30.25 22.1713 30.25 23.1686 30.2206 24.0257C30.1564 25.8991 29.9537 27.2761 29.1518 28.3798C28.7972 28.8679 28.3679 29.2972 27.8798 29.6518C26.7761 30.4537 25.3991 30.6564 23.5257 30.7206C22.6684 30.75 21.671 30.75 20.5108 30.75H20.4547C18.6182 30.75 17.1786 30.75 16.0365 30.6263C14.8709 30.5 13.9266 30.2377 13.1202 29.6518C12.6321 29.2972 12.2028 28.8679 11.8482 28.3798C11.2623 27.5734 11 26.6291 10.8737 25.4635C10.75 24.3214 10.75 22.8818 10.75 21.0452V20.9548C10.75 19.1182 10.75 17.6786 10.8737 16.5365C11 15.3709 11.2623 14.4266 11.8482 13.6202C12.2028 13.1321 12.6321 12.7028 13.1202 12.3482C14.0766 11.6533 15.2381 11.4084 16.75 11.3136V10C16.75 9.58579 17.0858 9.25 17.5 9.25ZM16.75 12.8173C15.3879 12.9109 14.6018 13.1259 14.0019 13.5617C13.6411 13.8238 13.3238 14.1411 13.0617 14.5019C12.6926 15.0099 12.4775 15.6601 12.365 16.698C12.251 17.75 12.25 19.1084 12.25 21C12.25 22.8916 12.251 24.25 12.365 25.302C12.4775 26.3399 12.6926 26.9901 13.0617 27.4981C13.3238 27.8589 13.6411 28.1762 14.0019 28.4383C14.5099 28.8074 15.1601 29.0225 16.198 29.135C17.25 29.249 18.6084 29.25 20.5 29.25C21.3483 29.25 22.0918 29.2499 22.7518 29.2392C22.7562 28.7645 22.771 28.4151 22.8208 28.1005C23.2105 25.6401 25.1401 23.7105 27.6005 23.3208C27.9151 23.271 28.2645 23.2562 28.7392 23.2518C28.75 22.5918 28.75 21.8483 28.75 21C28.75 19.1084 28.749 17.75 28.635 16.698C28.5225 15.6601 28.3074 15.0099 27.9383 14.5019C27.6762 14.1411 27.3589 13.8238 26.9981 13.5617C26.3982 13.1259 25.6121 12.9109 24.25 12.8173V13C24.25 13.4142 23.9142 13.75 23.5 13.75C23.0858 13.75 22.75 13.4142 22.75 13V12.7608C22.0904 12.75 21.3476 12.75 20.5 12.75C19.6524 12.75 18.9096 12.75 18.25 12.7608V13C18.25 13.4142 17.9142 13.75 17.5 13.75C17.0858 13.75 16.75 13.4142 16.75 13V12.8173ZM28.6826 24.7528C28.2776 24.7575 28.0402 24.7699 27.8352 24.8023C26.0166 25.0904 24.5904 26.5166 24.3023 28.3352C24.2699 28.5402 24.2575 28.7776 24.2528 29.1826C25.6131 29.0888 26.3986 28.8738 26.9981 28.4383C27.3589 28.1762 27.6762 27.8589 27.9383 27.4981C28.3739 26.8986 28.5888 26.1131 28.6826 24.7528Z" fill="white"/>
<path d="M16.5 17C16.5 17.5523 16.0523 18 15.5 18C14.9477 18 14.5 17.5523 14.5 17C14.5 16.4477 14.9477 16 15.5 16C16.0523 16 16.5 16.4477 16.5 17Z" fill="white"/>
<path d="M16.5 21C16.5 21.5523 16.0523 22 15.5 22C14.9477 22 14.5 21.5523 14.5 21C14.5 20.4477 14.9477 20 15.5 20C16.0523 20 16.5 20.4477 16.5 21Z" fill="white"/>
<path d="M21.5 17C21.5 17.5523 21.0523 18 20.5 18C19.9477 18 19.5 17.5523 19.5 17C19.5 16.4477 19.9477 16 20.5 16C21.0523 16 21.5 16.4477 21.5 17Z" fill="white"/>
<path d="M21.5 21C21.5 21.5523 21.0523 22 20.5 22C19.9477 22 19.5 21.5523 19.5 21C19.5 20.4477 19.9477 20 20.5 20C21.0523 20 21.5 20.4477 21.5 21Z" fill="white"/>
<path d="M21.5 25C21.5 25.5523 21.0523 26 20.5 26C19.9477 26 19.5 25.5523 19.5 25C19.5 24.4477 19.9477 24 20.5 24C21.0523 24 21.5 24.4477 21.5 25Z" fill="white"/>
<path d="M26.5 17C26.5 17.5523 26.0523 18 25.5 18C24.9477 18 24.5 17.5523 24.5 17C24.5 16.4477 24.9477 16 25.5 16C26.0523 16 26.5 16.4477 26.5 17Z" fill="white"/>
<path d="M26.5 21C26.5 21.5523 26.0523 22 25.5 22C24.9477 22 24.5 21.5523 24.5 21C24.5 20.4477 24.9477 20 25.5 20C26.0523 20 26.5 20.4477 26.5 21Z" fill="white"/>
<path d="M16.5 25C16.5 25.5523 16.0523 26 15.5 26C14.9477 26 14.5 25.5523 14.5 25C14.5 24.4477 14.9477 24 15.5 24C16.0523 24 16.5 24.4477 16.5 25Z" fill="white"/>
</svg>
