<svg width="24" height="24" viewBox="0 0 24 24" fill="none" xmlns="http://www.w3.org/2000/svg">
<g clip-path="url(#clip0_4134_10509)">
<path d="M16.052 1.78052L17.018 2.04152C18.1994 2.3612 19.2763 2.98501 20.1413 3.85075C21.0064 4.7165 21.6293 5.7939 21.948 6.97552L22.208 7.94052L20.278 8.46152L20.017 7.49652C19.7893 6.65249 19.3442 5.88293 18.7262 5.26459C18.1082 4.64625 17.3389 4.20075 16.495 3.97252L15.53 3.71052L16.052 1.78052ZM1.00003 1.99352H9.58003L11.067 8.68352L9.20703 10.5435C10.3007 12.2455 11.7477 13.6923 13.45 14.7855L15.31 12.9265L22 14.4135V22.9935H21C17.1504 23.0001 13.3814 21.8899 10.15 19.7975C7.76725 18.2555 5.73807 16.2263 4.19603 13.8435C2.10365 10.6121 0.993465 6.84319 1.00003 2.99352V1.99352ZM3.02703 3.99352C3.19554 7.11343 4.17776 10.1349 5.87603 12.7575C7.26435 14.9025 9.09107 16.7292 11.236 18.1175C13.8586 19.8158 16.8801 20.798 20 20.9665V16.0175L15.947 15.1175L13.773 17.2925L13.11 16.9155C10.5927 15.485 8.50857 13.4009 7.07803 10.8835L6.70103 10.2205L8.87603 8.04652L7.97603 3.99352H3.02703ZM15.138 5.15852L16.104 5.41952C16.6947 5.57936 17.2332 5.89127 17.6657 6.32414C18.0982 6.75701 18.4097 7.29571 18.569 7.88652L18.829 8.85152L16.899 9.37252L16.638 8.40752C16.5696 8.1543 16.436 7.92344 16.2506 7.73797C16.0651 7.5525 15.8342 7.41891 15.581 7.35052L14.616 7.08952L15.138 5.15852Z" fill="white"/>
</g>
<defs>
<clipPath id="clip0_4134_10509">
<rect width="24" height="24" fill="white"/>
</clipPath>
</defs>
</svg>
