<svg width="24" height="24" viewBox="0 0 24 24" fill="none" xmlns="http://www.w3.org/2000/svg">
<g clip-path="url(#clip0_192_30)">
<path d="M16.052 1.78699L17.018 2.04799C18.1994 2.36767 19.2763 2.99148 20.1413 3.85722C21.0064 4.72297 21.6293 5.80037 21.948 6.98199L22.208 7.94699L20.278 8.46799L20.017 7.50299C19.7893 6.65896 19.3442 5.8894 18.7262 5.27106C18.1082 4.65272 17.3389 4.20722 16.495 3.97899L15.53 3.71699L16.052 1.78699ZM1.00003 1.99999H9.58003L11.067 8.68999L9.20703 10.55C10.3007 12.252 11.7477 13.6988 13.45 14.792L15.31 12.933L22 14.42V23H21C17.1504 23.0065 13.3814 21.8964 10.15 19.804C7.76725 18.2619 5.73807 16.2328 4.19603 13.85C2.10365 10.6186 0.993465 6.84966 1.00003 2.99999V1.99999ZM3.02703 3.99999C3.19554 7.1199 4.17776 10.1414 5.87603 12.764C7.26435 14.9089 9.09107 16.7357 11.236 18.124C13.8586 19.8223 16.8801 20.8045 20 20.973V16.024L15.947 15.124L13.773 17.299L13.11 16.922C10.5927 15.4915 8.50857 13.4074 7.07803 10.89L6.70103 10.227L8.87603 8.05299L7.97603 3.99999H3.02703ZM15.138 5.16499L16.104 5.42599C16.6947 5.58583 17.2332 5.89774 17.6657 6.33061C18.0982 6.76348 18.4097 7.30218 18.569 7.89299L18.829 8.85799L16.899 9.37899L16.638 8.41399C16.5696 8.16077 16.436 7.92991 16.2506 7.74444C16.0651 7.55897 15.8342 7.42538 15.581 7.35699L14.616 7.09599L15.138 5.16499Z" fill="black"/>
</g>
<defs>
<clipPath id="clip0_192_30">
<rect width="24" height="24" fill="white" transform="translate(0 0.00665283)"/>
</clipPath>
</defs>
</svg>
