<svg width="32" height="32" viewBox="0 0 32 32" fill="none" xmlns="http://www.w3.org/2000/svg">
<path fill-rule="evenodd" clip-rule="evenodd" d="M16.2901 19.0998L23.3495 26.1512C23.7241 26.5254 24.2322 26.7356 24.762 26.7356C25.2917 26.7356 25.7998 26.5254 26.1744 26.1512C26.549 25.777 26.7594 25.2695 26.7594 24.7404C26.7594 24.2112 26.549 23.7037 26.1744 23.3296L19.1123 16.2782L26.1731 9.22675C26.3585 9.04148 26.5055 8.82155 26.6058 8.57952C26.7061 8.33748 26.7577 8.07808 26.7576 7.81613C26.7576 7.55418 26.7059 7.29481 26.6054 7.05282C26.505 6.81084 26.3579 6.59097 26.1724 6.40579C25.9869 6.22061 25.7667 6.07373 25.5244 5.97354C25.2821 5.87336 25.0224 5.82182 24.7602 5.82188C24.4979 5.82194 24.2383 5.8736 23.996 5.9739C23.7537 6.0742 23.5336 6.22119 23.3482 6.40646L16.2901 13.4579L9.23064 6.40646C9.04653 6.21587 8.82626 6.06382 8.58269 5.95917C8.33912 5.85453 8.07712 5.79938 7.81199 5.79696C7.54685 5.79453 7.28389 5.84488 7.03844 5.94505C6.79299 6.04522 6.56997 6.19322 6.3824 6.3804C6.19482 6.56759 6.04645 6.79021 5.94593 7.03529C5.84541 7.28036 5.79476 7.54298 5.79694 7.80781C5.79912 8.07265 5.85408 8.3344 5.95862 8.57779C6.06315 8.82118 6.21517 9.04134 6.4058 9.22542L13.4679 16.2782L6.40713 23.3309C6.2165 23.515 6.06448 23.7351 5.95995 23.9785C5.85541 24.2219 5.80045 24.4837 5.79827 24.7485C5.7961 25.0133 5.84674 25.276 5.94726 25.521C6.04778 25.7661 6.19615 25.9887 6.38373 26.1759C6.5713 26.3631 6.79432 26.5111 7.03977 26.6113C7.28522 26.7114 7.54819 26.7618 7.81332 26.7594C8.07846 26.7569 8.34045 26.7018 8.58402 26.5971C8.82759 26.4925 9.04786 26.3404 9.23197 26.1499L16.2901 19.0998Z" fill="#0066AE"/>
</svg>
