<svg width="40" height="40" viewBox="0 0 40 40" fill="none" xmlns="http://www.w3.org/2000/svg">
<rect width="40" height="40" rx="20" fill="#0A3967"/>
<path d="M20.75 11C20.75 10.5858 20.4142 10.25 20 10.25C19.5858 10.25 19.25 10.5858 19.25 11V23.8105C18.9273 23.483 18.5438 23.001 17.9855 22.297L16.5877 20.534C16.3303 20.2095 15.8586 20.155 15.534 20.4123C15.2095 20.6697 15.155 21.1414 15.4123 21.466L16.8386 23.2648C17.3718 23.9372 17.8117 24.4922 18.2055 24.8875C18.6096 25.2932 19.0582 25.6294 19.6313 25.7208C19.7534 25.7402 19.8766 25.75 20 25.75C20.1234 25.75 20.2466 25.7402 20.3687 25.7208C20.9419 25.6294 21.3904 25.2932 21.7945 24.8875C22.1883 24.4922 22.6283 23.9372 23.1614 23.2648L24.5877 21.466C24.845 21.1414 24.7905 20.6697 24.466 20.4123C24.1414 20.155 23.6697 20.2095 23.4123 20.534L22.0145 22.297C21.4563 23.001 21.0727 23.483 20.75 23.8105V11Z" fill="#E4EDFF"/>
<path d="M28.6 18.5496C28.3513 18.2184 27.8811 18.1516 27.5499 18.4003C27.2188 18.6491 27.1519 19.1192 27.4007 19.4504C27.9342 20.1607 28.25 21.0424 28.25 22V23C28.25 23.9577 28.2477 24.3492 28.1977 24.6648C27.9097 26.4834 26.4834 27.9096 24.6649 28.1977C24.3492 28.2477 23.9577 28.25 23 28.25H17C16.0423 28.25 15.6508 28.2477 15.3352 28.1977C13.5166 27.9096 12.0904 26.4834 11.8023 24.6648C11.7523 24.3492 11.75 23.9577 11.75 23V22C11.75 21.0424 12.0658 20.1607 12.5993 19.4504C12.8481 19.1192 12.7813 18.6491 12.4501 18.4003C12.1189 18.1516 11.6487 18.2184 11.4 18.5496C10.6781 19.5106 10.25 20.7064 10.25 22L10.25 23.0808C10.2499 23.9328 10.2499 24.4518 10.3208 24.8995C10.7105 27.3599 12.6401 29.2895 15.1005 29.6792C15.5482 29.7501 16.0672 29.7501 16.9192 29.75H23.0808C23.9328 29.7501 24.4518 29.7501 24.8995 29.6792C27.3599 29.2895 29.2895 27.3599 29.6792 24.8995C29.7501 24.4518 29.7501 23.9328 29.75 23.0808L29.75 22C29.75 20.7064 29.3219 19.5106 28.6 18.5496Z" fill="#E4EDFF"/>
</svg>
