<svg width="24" height="24" viewBox="0 0 24 24" fill="none" xmlns="http://www.w3.org/2000/svg">
<g clip-path="url(#clip0_4134_10515)">
<path d="M4 19.9934C3.45 19.9934 2.97933 19.7977 2.588 19.4064C2.19667 19.0151 2.00067 18.5441 2 17.9934V5.99341C2 5.44341 2.196 4.97274 2.588 4.58141C2.98 4.19007 3.45067 3.99407 4 3.99341H20C20.55 3.99341 21.021 4.18941 21.413 4.58141C21.805 4.97341 22.0007 5.44407 22 5.99341V17.9934C22 18.5434 21.8043 19.0144 21.413 19.4064C21.0217 19.7984 20.5507 19.9941 20 19.9934H4ZM12 12.9934L4 7.99341V17.9934H20V7.99341L12 12.9934ZM12 10.9934L20 5.99341H4L12 10.9934ZM4 7.99341V5.99341V17.9934V7.99341Z" fill="white"/>
</g>
<defs>
<clipPath id="clip0_4134_10515">
<rect width="24" height="24" fill="white"/>
</clipPath>
</defs>
</svg>
