<svg width="24" height="24" viewBox="0 0 24 24" fill="none" xmlns="http://www.w3.org/2000/svg">
<g clip-path="url(#clip0_370_1332)">
<path d="M13.5 16.875C13.5 17.1717 13.412 17.4617 13.2472 17.7084C13.0824 17.955 12.8481 18.1473 12.574 18.2608C12.2999 18.3744 11.9983 18.4041 11.7074 18.3462C11.4164 18.2883 11.1491 18.1454 10.9393 17.9357C10.7296 17.7259 10.5867 17.4586 10.5288 17.1676C10.4709 16.8767 10.5007 16.5751 10.6142 16.301C10.7277 16.0269 10.92 15.7926 11.1666 15.6278C11.4133 15.463 11.7033 15.375 12 15.375C12.3978 15.375 12.7794 15.533 13.0607 15.8143C13.342 16.0956 13.5 16.4772 13.5 16.875ZM22.125 12C22.125 14.0025 21.5312 15.9601 20.4186 17.6251C19.3061 19.2902 17.7248 20.5879 15.8747 21.3543C14.0246 22.1206 11.9888 22.3211 10.0247 21.9305C8.06066 21.5398 6.25656 20.5755 4.84055 19.1595C3.42454 17.7435 2.46023 15.9393 2.06955 13.9753C1.67888 12.0112 1.87939 9.97543 2.64572 8.12533C3.41206 6.27523 4.70981 4.69392 6.37486 3.58137C8.0399 2.46882 9.99747 1.875 12 1.875C14.6844 1.87798 17.258 2.94567 19.1562 4.84383C21.0543 6.74199 22.122 9.3156 22.125 12ZM19.875 12C19.875 10.4425 19.4131 8.91992 18.5478 7.62488C17.6825 6.32985 16.4526 5.32049 15.0136 4.72445C13.5747 4.12841 11.9913 3.97246 10.4637 4.27632C8.93607 4.58017 7.53288 5.3302 6.43154 6.43153C5.3302 7.53287 4.58018 8.93606 4.27632 10.4637C3.97246 11.9913 4.12841 13.5747 4.72445 15.0136C5.32049 16.4526 6.32985 17.6825 7.62489 18.5478C8.91993 19.4131 10.4425 19.875 12 19.875C14.0879 19.8728 16.0896 19.0424 17.566 17.566C19.0424 16.0896 19.8728 14.0879 19.875 12ZM12 6C9.72563 6 7.875 7.68188 7.875 9.75V10.125C7.875 10.4234 7.99353 10.7095 8.20451 10.9205C8.41549 11.1315 8.70164 11.25 9 11.25C9.29837 11.25 9.58452 11.1315 9.7955 10.9205C10.0065 10.7095 10.125 10.4234 10.125 10.125V9.75C10.125 8.92313 10.9688 8.25 12 8.25C13.0313 8.25 13.875 8.92313 13.875 9.75C13.875 10.5769 13.0313 11.25 12 11.25C11.7016 11.25 11.4155 11.3685 11.2045 11.5795C10.9935 11.7905 10.875 12.0766 10.875 12.375V13.125C10.8743 13.4029 10.9766 13.6713 11.162 13.8783C11.3475 14.0854 11.603 14.2164 11.8793 14.2462C12.1557 14.276 12.4333 14.2025 12.6586 14.0398C12.8839 13.8771 13.0411 13.6367 13.0997 13.365C14.8416 12.9262 16.125 11.4722 16.125 9.75C16.125 7.68188 14.2744 6 12 6Z" fill="black"/>
</g>
<defs>
<clipPath id="clip0_370_1332">
<rect width="24" height="24" fill="white" transform="translate(0 0.00665283)"/>
</clipPath>
</defs>
</svg>
