<svg width="24" height="27" viewBox="0 0 24 27" fill="none" xmlns="http://www.w3.org/2000/svg">
<g clip-path="url(#clip0_4134_10493)">
<path d="M13.5 16.8684C13.5 17.1651 13.412 17.4551 13.2472 17.7018C13.0824 17.9484 12.8481 18.1407 12.574 18.2542C12.2999 18.3678 11.9983 18.3975 11.7074 18.3396C11.4164 18.2817 11.1491 18.1388 10.9393 17.9291C10.7296 17.7193 10.5867 17.452 10.5288 17.161C10.4709 16.8701 10.5007 16.5685 10.6142 16.2944C10.7277 16.0203 10.92 15.786 11.1666 15.6212C11.4133 15.4564 11.7033 15.3684 12 15.3684C12.3978 15.3684 12.7794 15.5264 13.0607 15.8077C13.342 16.0891 13.5 16.4706 13.5 16.8684ZM22.125 11.9934C22.125 13.9959 21.5312 15.9535 20.4186 17.6186C19.3061 19.2836 17.7248 20.5814 15.8747 21.3477C14.0246 22.114 11.9888 22.3145 10.0247 21.9239C8.06066 21.5332 6.25656 20.5689 4.84055 19.1529C3.42454 17.7369 2.46023 15.9328 2.06955 13.9687C1.67888 12.0046 1.87939 9.96884 2.64572 8.11874C3.41206 6.26864 4.70981 4.68733 6.37486 3.57478C8.0399 2.46223 9.99747 1.86841 12 1.86841C14.6844 1.87139 17.258 2.93908 19.1562 4.83724C21.0543 6.7354 22.122 9.30901 22.125 11.9934ZM19.875 11.9934C19.875 10.4359 19.4131 8.91333 18.5478 7.61829C17.6825 6.32326 16.4526 5.3139 15.0136 4.71786C13.5747 4.12182 11.9913 3.96587 10.4637 4.26972C8.93607 4.57358 7.53288 5.3236 6.43154 6.42494C5.3302 7.52628 4.58018 8.92947 4.27632 10.4571C3.97246 11.9847 4.12841 13.5681 4.72445 15.007C5.32049 16.446 6.32985 17.6759 7.62489 18.5412C8.91993 19.4065 10.4425 19.8684 12 19.8684C14.0879 19.8662 16.0896 19.0358 17.566 17.5594C19.0424 16.083 19.8728 14.0813 19.875 11.9934ZM12 5.99341C9.72563 5.99341 7.875 7.67528 7.875 9.74341V10.1184C7.875 10.4168 7.99353 10.7029 8.20451 10.9139C8.41549 11.1249 8.70164 11.2434 9 11.2434C9.29837 11.2434 9.58452 11.1249 9.7955 10.9139C10.0065 10.7029 10.125 10.4168 10.125 10.1184V9.74341C10.125 8.91653 10.9688 8.24341 12 8.24341C13.0313 8.24341 13.875 8.91653 13.875 9.74341C13.875 10.5703 13.0313 11.2434 12 11.2434C11.7016 11.2434 11.4155 11.3619 11.2045 11.5729C10.9935 11.7839 10.875 12.07 10.875 12.3684V13.1184C10.8743 13.3964 10.9766 13.6647 11.162 13.8717C11.3475 14.0788 11.603 14.2098 11.8793 14.2396C12.1557 14.2694 12.4333 14.1959 12.6586 14.0332C12.8839 13.8705 13.0411 13.6301 13.0997 13.3584C14.8416 12.9197 16.125 11.4656 16.125 9.74341C16.125 7.67528 14.2744 5.99341 12 5.99341Z" fill="white"/>
</g>
<defs>
<clipPath id="clip0_4134_10493">
<rect width="24" height="26.6982" fill="white" transform="translate(0 -0.0065918)"/>
</clipPath>
</defs>
</svg>
