<svg width="24" height="24" viewBox="0 0 24 24" fill="none" xmlns="http://www.w3.org/2000/svg">
<path d="M4 20.0067C3.45 20.0067 2.97933 19.811 2.588 19.4197C2.19667 19.0283 2.00067 18.5573 2 18.0067V6.00665C2 5.45665 2.196 4.98599 2.588 4.59465C2.98 4.20332 3.45067 4.00732 4 4.00665H20C20.55 4.00665 21.021 4.20265 21.413 4.59465C21.805 4.98665 22.0007 5.45732 22 6.00665V18.0067C22 18.5567 21.8043 19.0277 21.413 19.4197C21.0217 19.8117 20.5507 20.0073 20 20.0067H4ZM6.5 15.0067H7.65V9.00665H6.75L5 10.2567L5.6 11.1567L6.5 10.5067V15.0067ZM9.6 15.0067H13.5V14.0067H11.15L11.1 13.9567C11.45 13.6233 11.7377 13.34 11.963 13.1067C12.1883 12.8733 12.3673 12.69 12.5 12.5567C12.8 12.2567 13.025 11.9567 13.175 11.6567C13.325 11.3567 13.4 11.04 13.4 10.7067C13.4 10.2233 13.2167 9.81899 12.85 9.49365C12.4833 9.16832 12.0167 9.00599 11.45 9.00665C11.0167 9.00665 10.625 9.13165 10.275 9.38165C9.925 9.63165 9.68333 9.95665 9.55 10.3567L10.55 10.7567C10.6333 10.54 10.7543 10.369 10.913 10.2437C11.0717 10.1183 11.2507 10.056 11.45 10.0567C11.7 10.0567 11.9043 10.1233 12.063 10.2567C12.2217 10.39 12.3007 10.5567 12.3 10.7567C12.3 10.94 12.2667 11.111 12.2 11.2697C12.1333 11.4283 11.9833 11.624 11.75 11.8567L10.95 12.6567L9.6 14.0067V15.0067ZM17 15.0067C17.6 15.0067 18.0833 14.84 18.45 14.5067C18.8167 14.1733 19 13.74 19 13.2067C19 12.9067 18.9167 12.64 18.75 12.4067C18.5833 12.1733 18.35 11.99 18.05 11.8567V11.8067C18.2833 11.6733 18.4667 11.5023 18.6 11.2937C18.7333 11.085 18.8 10.8393 18.8 10.5567C18.8 10.1067 18.625 9.73565 18.275 9.44365C17.925 9.15165 17.4833 9.00599 16.95 9.00665C16.5333 9.00665 16.146 9.12765 15.788 9.36965C15.43 9.61165 15.2007 9.90732 15.1 10.2567L16.1 10.6567C16.1667 10.4567 16.275 10.2983 16.425 10.1817C16.575 10.065 16.75 10.0067 16.95 10.0067C17.1667 10.0067 17.346 10.0693 17.488 10.1947C17.63 10.32 17.7007 10.474 17.7 10.6567C17.7 10.89 17.6167 11.0733 17.45 11.2067C17.2833 11.34 17.0667 11.4067 16.8 11.4067H16.35V12.4067H16.85C17.1833 12.4067 17.4417 12.4733 17.625 12.6067C17.8083 12.74 17.9 12.9233 17.9 13.1567C17.9 13.3733 17.8083 13.561 17.625 13.7197C17.4417 13.8783 17.2333 13.9573 17 13.9567C16.7167 13.9567 16.5 13.8943 16.35 13.7697C16.2 13.645 16.0667 13.424 15.95 13.1067L14.95 13.5067C15.0667 13.99 15.3043 14.361 15.663 14.6197C16.0217 14.8783 16.4673 15.0073 17 15.0067ZM4 18.0067H20V6.00665H4V18.0067Z" fill="black"/>
</svg>
