<svg width="24" height="24" viewBox="0 0 24 24" fill="none" xmlns="http://www.w3.org/2000/svg">
<path d="M12.7499 10C12.7499 9.80109 12.6709 9.61032 12.5303 9.46967C12.3896 9.32902 12.1988 9.25 11.9999 9.25C11.801 9.25 11.6103 9.32902 11.4696 9.46967C11.3289 9.61032 11.2499 9.80109 11.2499 10V10.701L10.6429 10.351C10.4713 10.2596 10.2709 10.2384 10.084 10.2919C9.89712 10.3454 9.73828 10.4694 9.64102 10.6378C9.54375 10.8061 9.51565 11.0056 9.56265 11.1943C9.60964 11.3829 9.72806 11.546 9.89293 11.649L10.4999 11.999L9.89293 12.35C9.72054 12.4495 9.59472 12.6133 9.54314 12.8055C9.49157 12.9978 9.51847 13.2026 9.61793 13.375C9.71738 13.5474 9.88125 13.6732 10.0735 13.7248C10.2657 13.7764 10.4705 13.7495 10.6429 13.65L11.2499 13.299V14C11.2499 14.1989 11.3289 14.3897 11.4696 14.5303C11.6103 14.671 11.801 14.75 11.9999 14.75C12.1988 14.75 12.3896 14.671 12.5303 14.5303C12.6709 14.3897 12.7499 14.1989 12.7499 14V13.3L13.3569 13.65C13.5293 13.7495 13.7342 13.7764 13.9264 13.7248C14.1186 13.6732 14.2825 13.5474 14.3819 13.375C14.4814 13.2026 14.5083 12.9978 14.4567 12.8055C14.4051 12.6133 14.2793 12.4495 14.1069 12.35L13.4999 12L14.1069 11.65C14.2793 11.5505 14.4051 11.3867 14.4567 11.1945C14.5083 11.0022 14.4814 10.7974 14.3819 10.625C14.2825 10.4526 14.1186 10.3268 13.9264 10.2752C13.7342 10.2236 13.5293 10.2505 13.3569 10.35L12.7499 10.7V10ZM6.73293 9.25C6.93184 9.25 7.12261 9.32902 7.26326 9.46967C7.40391 9.61032 7.48293 9.80109 7.48293 10V10.7L8.08893 10.35C8.26132 10.2505 8.46616 10.2236 8.65838 10.2752C8.85061 10.3268 9.01447 10.4526 9.11393 10.625C9.21338 10.7974 9.24029 11.0022 9.18871 11.1945C9.13714 11.3867 9.01132 11.5505 8.83893 11.65L8.23193 12L8.83893 12.35C8.92429 12.3992 8.99911 12.4648 9.05913 12.543C9.11914 12.6211 9.16318 12.7104 9.18871 12.8055C9.21425 12.9007 9.22079 13 9.20796 13.0977C9.19512 13.1954 9.16317 13.2896 9.11393 13.375C9.06468 13.4604 8.99911 13.5352 8.92094 13.5952C8.84278 13.6552 8.75356 13.6992 8.65838 13.7248C8.5632 13.7503 8.46392 13.7569 8.36622 13.744C8.26851 13.7312 8.17429 13.6992 8.08893 13.65L7.48293 13.3V14C7.48293 14.1989 7.40391 14.3897 7.26326 14.5303C7.12261 14.671 6.93184 14.75 6.73293 14.75C6.53402 14.75 6.34325 14.671 6.2026 14.5303C6.06195 14.3897 5.98293 14.1989 5.98293 14V13.299L5.37493 13.649C5.20333 13.7404 5.00294 13.7616 4.81603 13.7081C4.62912 13.6546 4.47029 13.5306 4.37302 13.3622C4.27575 13.1939 4.24765 12.9944 4.29465 12.8057C4.34164 12.6171 4.46006 12.454 4.62493 12.351L5.23193 12L4.62493 11.65C4.53957 11.6008 4.46475 11.5352 4.40473 11.457C4.34471 11.3789 4.30068 11.2896 4.27514 11.1945C4.24961 11.0993 4.24307 11 4.2559 10.9023C4.26873 10.8046 4.30068 10.7104 4.34993 10.625C4.39917 10.5396 4.46475 10.4648 4.54291 10.4048C4.62108 10.3448 4.71029 10.3008 4.80547 10.2752C4.90065 10.2497 4.99993 10.2431 5.09764 10.256C5.19535 10.2688 5.28957 10.3008 5.37493 10.35L5.98293 10.701V10C5.98293 9.80109 6.06195 9.61032 6.2026 9.46967C6.34325 9.32902 6.53402 9.25 6.73293 9.25ZM18.0179 10C18.0179 9.80109 17.9389 9.61032 17.7983 9.46967C17.6576 9.32902 17.4668 9.25 17.2679 9.25C17.069 9.25 16.8782 9.32902 16.7376 9.46967C16.5969 9.61032 16.5179 9.80109 16.5179 10V10.701L15.9109 10.351C15.7393 10.2596 15.5389 10.2384 15.352 10.2919C15.1651 10.3454 15.0063 10.4694 14.909 10.6378C14.8118 10.8061 14.7837 11.0056 14.8306 11.1943C14.8776 11.3829 14.9961 11.546 15.1609 11.649L15.7679 11.999L15.1599 12.35C14.9875 12.4495 14.8617 12.6133 14.8101 12.8055C14.7586 12.9978 14.7855 13.2026 14.8849 13.375C14.9844 13.5474 15.1482 13.6732 15.3405 13.7248C15.5327 13.7764 15.7375 13.7495 15.9099 13.65L16.5179 13.299V14C16.5179 14.1989 16.5969 14.3897 16.7376 14.5303C16.8782 14.671 17.069 14.75 17.2679 14.75C17.4668 14.75 17.6576 14.671 17.7983 14.5303C17.9389 14.3897 18.0179 14.1989 18.0179 14V13.3L18.6249 13.65C18.7973 13.7495 19.0022 13.7764 19.1944 13.7248C19.3866 13.6732 19.5505 13.5474 19.6499 13.375C19.7494 13.2026 19.7763 12.9978 19.7247 12.8055C19.6731 12.6133 19.5473 12.4495 19.3749 12.35L18.7679 12L19.3749 11.65C19.5473 11.5505 19.6731 11.3867 19.7247 11.1945C19.7763 11.0022 19.7494 10.7974 19.6499 10.625C19.5505 10.4526 19.3866 10.3268 19.1944 10.2752C19.0022 10.2236 18.7973 10.2505 18.6249 10.35L18.0179 10.7V10Z" fill="white"/>
<path fill-rule="evenodd" clip-rule="evenodd" d="M9.944 3.25C8.106 3.25 6.65 3.25 5.511 3.403C4.339 3.561 3.39 3.893 2.641 4.641C1.893 5.39 1.561 6.339 1.403 7.511C1.25 8.651 1.25 10.106 1.25 11.944V12.056C1.25 13.894 1.25 15.35 1.403 16.489C1.561 17.661 1.893 18.61 2.641 19.359C3.39 20.107 4.339 20.439 5.511 20.597C6.651 20.75 8.106 20.75 9.944 20.75H14.056C15.894 20.75 17.35 20.75 18.489 20.597C19.661 20.439 20.61 20.107 21.359 19.359C22.107 18.61 22.439 17.661 22.597 16.489C22.75 15.349 22.75 13.894 22.75 12.056V11.944C22.75 10.106 22.75 8.65 22.597 7.511C22.439 6.339 22.107 5.39 21.359 4.641C20.61 3.893 19.661 3.561 18.489 3.403C17.349 3.25 15.894 3.25 14.056 3.25H9.944ZM3.702 5.702C4.125 5.279 4.705 5.025 5.711 4.89C6.739 4.752 8.093 4.75 10 4.75H14C15.907 4.75 17.262 4.752 18.29 4.89C19.295 5.025 19.875 5.279 20.298 5.702C20.721 6.125 20.975 6.705 21.11 7.711C21.248 8.739 21.25 10.093 21.25 12C21.25 13.907 21.248 15.262 21.11 16.29C20.975 17.295 20.721 17.875 20.298 18.298C19.875 18.721 19.295 18.975 18.289 19.11C17.262 19.248 15.907 19.25 14 19.25H10C8.093 19.25 6.739 19.248 5.71 19.11C4.705 18.975 4.125 18.721 3.702 18.298C3.279 17.875 3.025 17.295 2.89 16.289C2.752 15.261 2.75 13.907 2.75 12C2.75 10.093 2.752 8.739 2.89 7.71C3.025 6.705 3.279 6.125 3.702 5.702Z" fill="white"/>
</svg>
