<svg width="41" height="40" viewBox="0 0 41 40" fill="none" xmlns="http://www.w3.org/2000/svg">
<path d="M27.5 15H26.5V14C26.5 13.2044 26.1839 12.4413 25.6213 11.8787C25.0587 11.3161 24.2956 11 23.5 11H13.5C12.7044 11 11.9413 11.3161 11.3787 11.8787C10.8161 12.4413 10.5 13.2044 10.5 14V26C10.5 26.7956 10.8161 27.5587 11.3787 28.1213C11.9413 28.6839 12.7044 29 13.5 29H27.5C28.2956 29 29.0587 28.6839 29.6213 28.1213C30.1839 27.5587 30.5 26.7956 30.5 26V18C30.5 17.2044 30.1839 16.4413 29.6213 15.8787C29.0587 15.3161 28.2956 15 27.5 15ZM13.5 13H23.5C23.7652 13 24.0196 13.1054 24.2071 13.2929C24.3946 13.4804 24.5 13.7348 24.5 14V15H13.5C13.2348 15 12.9804 14.8946 12.7929 14.7071C12.6054 14.5196 12.5 14.2652 12.5 14C12.5 13.7348 12.6054 13.4804 12.7929 13.2929C12.9804 13.1054 13.2348 13 13.5 13ZM28.5 23H27.5C27.2348 23 26.9804 22.8946 26.7929 22.7071C26.6054 22.5196 26.5 22.2652 26.5 22C26.5 21.7348 26.6054 21.4804 26.7929 21.2929C26.9804 21.1054 27.2348 21 27.5 21H28.5V23ZM28.5 19H27.5C26.7044 19 25.9413 19.3161 25.3787 19.8787C24.8161 20.4413 24.5 21.2044 24.5 22C24.5 22.7956 24.8161 23.5587 25.3787 24.1213C25.9413 24.6839 26.7044 25 27.5 25H28.5V26C28.5 26.2652 28.3946 26.5196 28.2071 26.7071C28.0196 26.8946 27.7652 27 27.5 27H13.5C13.2348 27 12.9804 26.8946 12.7929 26.7071C12.6054 26.5196 12.5 26.2652 12.5 26V16.83C12.8213 16.943 13.1594 17.0005 13.5 17H27.5C27.7652 17 28.0196 17.1054 28.2071 17.2929C28.3946 17.4804 28.5 17.7348 28.5 18V19Z" fill="white"/>
</svg>
