<svg width="24" height="24" viewBox="0 0 23 22" fill="none" xmlns="http://www.w3.org/2000/svg">
<path d="M18.3764 12.7567C18.3764 13.1028 18.2738 13.4411 18.0815 13.7289C17.8892 14.0167 17.6159 14.241 17.2961 14.3734C16.9764 14.5059 16.6245 14.5406 16.285 14.473C15.9456 14.4055 15.6338 14.2388 15.389 13.9941C15.1443 13.7493 14.9776 13.4375 14.9101 13.0981C14.8425 12.7586 14.8772 12.4067 15.0097 12.087C15.1421 11.7672 15.3664 11.4939 15.6542 11.3016C15.942 11.1093 16.2803 11.0067 16.6264 11.0067C17.0906 11.0067 17.5357 11.191 17.8639 11.5192C18.1921 11.8474 18.3764 12.2925 18.3764 12.7567ZM22.7514 8.81915V17.5692C22.7514 18.4974 22.3827 19.3876 21.7263 20.044C21.0699 20.7004 20.1797 21.0692 19.2514 21.0692H3.50145C2.57319 21.0692 1.68295 20.7004 1.02657 20.044C0.370196 19.3876 0.00144688 18.4974 0.00144688 17.5692V4.54478C-0.0120144 4.07675 0.0685678 3.61079 0.238422 3.17446C0.408277 2.73814 0.663951 2.34033 0.990306 2.0046C1.31666 1.66886 1.70706 1.40201 2.1384 1.21986C2.56973 1.03771 3.03323 0.94396 3.50145 0.944153H17.9389C18.287 0.944153 18.6209 1.08243 18.867 1.32858C19.1132 1.57472 19.2514 1.90856 19.2514 2.25665C19.2514 2.60475 19.1132 2.93859 18.867 3.18473C18.6209 3.43087 18.287 3.56915 17.9389 3.56915H3.50145C3.38411 3.56909 3.26795 3.59263 3.1599 3.63837C3.05184 3.68411 2.95409 3.75112 2.87245 3.83541C2.79082 3.91969 2.72697 4.01954 2.68471 4.129C2.64245 4.23847 2.62263 4.35531 2.62645 4.47259V4.48134C2.64482 4.71302 2.75115 4.92888 2.92361 5.08467C3.09607 5.24045 3.3216 5.32435 3.55395 5.31915H19.2514C20.1797 5.31915 21.0699 5.6879 21.7263 6.34428C22.3827 7.00066 22.7514 7.89089 22.7514 8.81915ZM20.1264 8.81915C20.1264 8.58709 20.0343 8.36453 19.8702 8.20043C19.7061 8.03634 19.4835 7.94415 19.2514 7.94415H3.55395C3.24102 7.94431 2.92935 7.90461 2.62645 7.82603V17.5692C2.62645 17.8012 2.71863 18.0238 2.88273 18.1879C3.04682 18.352 3.26938 18.4442 3.50145 18.4442H19.2514C19.4835 18.4442 19.7061 18.352 19.8702 18.1879C20.0343 18.0238 20.1264 17.8012 20.1264 17.5692V8.81915Z" fill="#0A3967"/>
</svg>
