<svg width="64" height="40" viewBox="0 0 64 40" fill="none" xmlns="http://www.w3.org/2000/svg">
<mask id="mask0_4134_10526" style="mask-type:luminance" maskUnits="userSpaceOnUse" x="0" y="0" width="41" height="40">
<path d="M0 0H40.6535V39.1581H0V0Z" fill="white"/>
</mask>
<g mask="url(#mask0_4134_10526)">
<mask id="mask1_4134_10526" style="mask-type:luminance" maskUnits="userSpaceOnUse" x="-14" y="-24" width="91" height="88">
<path d="M-13.5427 21.089L32.8226 -23.5708L76.8691 18.8554L30.5037 63.5152L-13.5427 21.089Z" fill="white"/>
</mask>
<g mask="url(#mask1_4134_10526)">
<mask id="mask2_4134_10526" style="mask-type:luminance" maskUnits="userSpaceOnUse" x="-14" y="-24" width="91" height="88">
<path d="M-13.5427 21.089L32.8226 -23.5708L76.8691 18.8554L30.5037 63.5152L-13.5427 21.089Z" fill="white"/>
</mask>
<g mask="url(#mask2_4134_10526)">
<path d="M32.814 25.5445C32.814 27.1877 32.1497 28.7321 30.9442 29.8933C29.7387 31.0528 28.137 31.6926 26.4311 31.6926H8.43175C8.14317 31.6926 7.9468 31.5627 7.8341 31.4541C7.7214 31.3456 7.5865 31.1581 7.5865 30.8785V13.5412C7.5865 11.8455 8.30197 10.3093 9.45799 9.19578C10.614 8.08393 12.2106 7.39314 13.9694 7.39314H21.9368L29.4433 0.162842H13.9694C10.2588 0.162842 6.772 1.5543 4.14748 4.08063C1.52467 6.6086 0.0800781 9.96717 0.0800781 13.5412V30.8785C0.0800781 33.0281 0.949225 35.0479 2.52701 36.5676C4.10309 38.0874 6.20167 38.9229 8.43345 38.9246H26.4311C30.1416 38.9229 33.6302 37.5315 36.253 35.0051C38.8758 32.4788 40.3204 29.1186 40.3221 25.5462L40.3204 10.6399L32.814 17.8702V25.5445Z" fill="#E4EDFF"/>
</g>
</g>
</g>
<mask id="mask3_4134_10526" style="mask-type:luminance" maskUnits="userSpaceOnUse" x="22" y="0" width="42" height="40">
<path d="M22.731 0.841797H63.3845V39.9999H22.731V0.841797Z" fill="white"/>
</mask>
<g mask="url(#mask3_4134_10526)">
<mask id="mask4_4134_10526" style="mask-type:luminance" maskUnits="userSpaceOnUse" x="-14" y="-24" width="91" height="88">
<path d="M-13.5427 21.0887L32.8226 -23.571L76.8691 18.8552L30.5037 63.5149L-13.5427 21.0887Z" fill="white"/>
</mask>
<g mask="url(#mask4_4134_10526)">
<mask id="mask5_4134_10526" style="mask-type:luminance" maskUnits="userSpaceOnUse" x="-14" y="-24" width="91" height="88">
<path d="M-13.5427 21.0887L32.8226 -23.571L76.8691 18.8552L30.5037 63.5149L-13.5427 21.0887Z" fill="white"/>
</mask>
<g mask="url(#mask5_4134_10526)">
<path d="M60.8574 3.43236C59.2796 1.91261 57.1827 1.07708 54.9509 1.07544H36.9515C33.2427 1.07708 29.7542 2.46854 27.1314 4.99487C24.5086 7.5212 23.064 10.8814 23.064 14.4538V29.3601L30.5704 22.1298V14.4538C30.5704 12.7597 31.2859 11.2235 32.4419 10.11C33.5979 8.99653 35.1928 8.30738 36.9532 8.30738H54.9526C55.2412 8.30738 55.4376 8.43732 55.5503 8.54587C55.663 8.65443 55.7979 8.84193 55.7979 9.12153V26.4588C55.7979 28.1002 55.1336 29.6447 53.9281 30.8059C52.7225 31.967 51.1209 32.6068 49.415 32.6068H41.4475L33.9411 39.8372H49.415C53.1255 39.8372 56.6124 38.4457 59.2369 35.9194C61.8597 33.3914 63.3043 30.0328 63.3043 26.4588V9.12153C63.3043 6.9735 62.4351 4.9521 60.8574 3.43236Z" fill="#0066AE"/>
</g>
</g>
</g>
</svg>
