<svg width="60" height="60" viewBox="0 0 60 60" fill="none" xmlns="http://www.w3.org/2000/svg">
<circle cx="30" cy="30" r="30" fill="#0066AE"/>
<path d="M44.6097 36.5995C48.3458 31.8888 46.1664 26.6501 44.6097 24.6196H49.0768C50.4982 26.8531 50.9043 34.1629 49.4242 36.5995H44.6097Z" fill="white"/>
<path d="M45.0838 36.4058C44.9522 36.4058 44.8255 36.4546 44.7248 36.5406C43.3311 37.7248 41.5296 38.4396 39.5624 38.4396C37.8341 38.4396 36.1934 37.8986 34.8111 36.8736C34.0801 36.3311 33.0551 36.336 32.3972 36.963C31.5509 37.7687 31.6565 39.0991 32.5499 39.7716C34.5837 41.305 37.0089 42.1156 39.5641 42.1156C43.448 42.1156 47.2556 39.609 49.3754 36.6803C49.6386 36.318 49.0099 36.4058 48.5632 36.4058H45.0838Z" fill="white"/>
<path d="M22.994 34.2784C23.7282 34.9785 24.8913 34.9525 25.593 34.2183C25.9618 33.8333 29.8895 29.0461 31.0867 27.5436C32.9515 25.2028 32.8378 25.2029 34.0594 24.2201C35.2533 23.2585 36.6812 22.3683 39.0187 22.3683C41.3448 22.3683 43.4387 23.3689 44.9006 24.9609C45.0062 25.0762 45.154 25.1444 45.3116 25.1444H48.5117C48.9405 25.1444 49.3775 25.2516 49.1549 24.8845C47.1082 21.5204 43.2389 18.6907 39.0203 18.6907C35.5148 18.6907 33.2959 20.1136 31.756 21.3547C30.3346 22.4983 31.0802 21.6519 28.2132 25.2515C27.3425 26.3448 23.2084 31.3935 22.9355 31.6777C22.2338 32.4152 22.2597 33.5783 22.994 34.2784Z" fill="white"/>
<path d="M15.3309 24.0436C11.5933 28.7542 13.7736 33.9926 15.3309 36.023H10.8621C9.4402 33.7896 9.03394 26.4801 10.5145 24.0436H15.3309Z" fill="white"/>
<path d="M14.8566 24.2373C14.9883 24.2373 15.115 24.1886 15.2158 24.1025C16.61 22.9184 18.4122 22.2037 20.3801 22.2037C22.1091 22.2037 23.7503 22.7446 25.1332 23.7695C25.8645 24.312 26.8899 24.3072 27.548 23.6802C28.3946 22.8745 28.289 21.5442 27.3952 20.8717C25.3607 19.3384 22.9346 18.5278 20.3784 18.5278C16.493 18.5278 12.684 21.0343 10.5633 23.9629C10.3001 24.3251 10.929 24.2373 11.3759 24.2373H14.8566Z" fill="white"/>
<path d="M36.9548 26.3646C36.2203 25.6646 35.0568 25.6906 34.3548 26.4247C33.9859 26.8097 30.0566 31.5967 28.859 33.0992C26.9935 35.4398 27.1072 35.4397 25.8852 36.4225C24.6908 37.3841 23.2624 38.2742 20.924 38.2742C18.597 38.2742 16.5024 37.2736 15.0399 35.6818C14.9342 35.5664 14.7864 35.4982 14.6287 35.4982H11.4275C10.9985 35.4982 10.5613 35.391 10.784 35.7581C12.8315 39.1221 16.7023 41.9517 20.9224 41.9517C24.4292 41.9517 26.649 40.5288 28.1895 39.2878C29.6114 38.1442 28.8655 38.9906 31.7336 35.3911C32.6046 34.2979 36.7403 29.2494 37.0133 28.9652C37.7153 28.2277 37.6893 27.0647 36.9548 26.3646Z" fill="white"/>
<mask id="mask0_5333_25414" style="mask-type:alpha" maskUnits="userSpaceOnUse" x="0" y="0" width="60" height="60">
<circle cx="30" cy="30" r="30" fill="white"/>
</mask>
<g mask="url(#mask0_5333_25414)">
<path d="M-5.79731 25.3301H6.8933C8.99595 25.3301 10.7005 27.0346 10.7005 29.1373C10.7005 31.2399 8.99596 32.9444 6.89331 32.9444H-5.79731C-7.89996 32.9444 -9.60449 31.2399 -9.60449 29.1373C-9.60449 27.0346 -7.89996 25.3301 -5.79731 25.3301Z" fill="white"/>
<path d="M52.2114 25.3845H65.0191C67.0902 25.3845 68.7691 27.0635 68.7691 29.1345C68.7691 31.2056 67.0902 32.8845 65.0191 32.8845H52.2114C50.1404 32.8845 48.4614 31.2056 48.4614 29.1345C48.4614 27.0635 50.1404 25.3845 52.2114 25.3845Z" fill="white"/>
</g>
</svg>
