<svg width="28" height="28" viewBox="0 0 28 28" fill="none" xmlns="http://www.w3.org/2000/svg">
<path d="M16.3333 9.33335V7.00002C16.3333 6.38118 16.0875 5.78769 15.6499 5.3501C15.2123 4.91252 14.6188 4.66669 14 4.66669H5.83333C5.21449 4.66669 4.621 4.91252 4.18342 5.3501C3.74583 5.78769 3.5 6.38118 3.5 7.00002V21C3.5 21.6189 3.74583 22.2124 4.18342 22.6499C4.621 23.0875 5.21449 23.3334 5.83333 23.3334H14C14.6188 23.3334 15.2123 23.0875 15.6499 22.6499C16.0875 22.2124 16.3333 21.6189 16.3333 21V18.6667" stroke="#0A3967" stroke-width="2" stroke-linecap="round" stroke-linejoin="round"/>
<path d="M10.5 14H24.5M24.5 14L21 10.5M24.5 14L21 17.5" stroke="#0A3967" stroke-width="2" stroke-linecap="round" stroke-linejoin="round"/>
</svg>
