<svg width="24" height="24" viewBox="0 0 24 24" fill="none" xmlns="http://www.w3.org/2000/svg">
<path d="M20 20H4V18.4444C4 17.0005 4.58998 15.6157 5.64019 14.5946C6.69039 13.5736 8.11479 13 9.6 13H14.4C15.8852 13 17.3096 13.5736 18.3598 14.5946C19.41 15.6157 20 17.0005 20 18.4444V20ZM5.6 18.4444H18.4C18.4 17.413 17.9786 16.4239 17.2284 15.6946C16.4783 14.9653 15.4609 14.5556 14.4 14.5556H9.6C8.53913 14.5556 7.52173 14.9653 6.77158 15.6946C6.02144 16.4239 5.6 17.413 5.6 18.4444V18.4444Z" fill="white"/>
<path d="M12 12C11.2089 12 10.4355 11.7654 9.77774 11.3259C9.11994 10.8864 8.60724 10.2616 8.30449 9.53074C8.00174 8.79983 7.92252 7.99556 8.07686 7.21964C8.2312 6.44372 8.61217 5.73099 9.17158 5.17158C9.73099 4.61217 10.4437 4.2312 11.2196 4.07686C11.9956 3.92252 12.7998 4.00173 13.5307 4.30448C14.2616 4.60723 14.8864 5.11992 15.3259 5.77772C15.7654 6.43552 16 7.20888 16 8C16 9.06087 15.5786 10.0783 14.8284 10.8284C14.0783 11.5786 13.0609 12 12 12ZM12 5.6C11.5253 5.6 11.0613 5.74076 10.6667 6.00447C10.272 6.26819 9.96432 6.64302 9.78267 7.08156C9.60102 7.5201 9.55349 8.00266 9.6461 8.46822C9.7387 8.93377 9.96728 9.36141 10.3029 9.69706C10.6386 10.0327 11.0662 10.2613 11.5318 10.3539C11.9973 10.4465 12.4799 10.399 12.9185 10.2173C13.357 10.0357 13.7318 9.72805 13.9955 9.33337C14.2592 8.93869 14.4 8.47468 14.4 8C14.4 7.36348 14.1472 6.75303 13.6971 6.30294C13.247 5.85286 12.6365 5.6 12 5.6V5.6Z" fill="white"/>
</svg>
