<svg width="151" height="150" viewBox="0 0 151 150" fill="none" xmlns="http://www.w3.org/2000/svg">
<g clip-path="url(#clip0_4133_13698)">
<path d="M150.919 0H0.919434V150H150.919V0Z" fill="white"/>
<path d="M14.2717 9.375H10.2944V13.3523H14.2717V9.375Z" fill="black"/>
<path d="M18.249 9.375H14.2717V13.3523H18.249V9.375Z" fill="black"/>
<path d="M22.2263 9.375H18.249V13.3523H22.2263V9.375Z" fill="black"/>
<path d="M26.2035 9.375H22.2263V13.3523H26.2035V9.375Z" fill="black"/>
<path d="M30.1808 9.375H26.2035V13.3523H30.1808V9.375Z" fill="black"/>
<path d="M34.1581 9.375H30.1808V13.3523H34.1581V9.375Z" fill="black"/>
<path d="M38.1353 9.375H34.1581V13.3523H38.1353V9.375Z" fill="black"/>
<path d="M46.0899 9.375H42.1126V13.3523H46.0899V9.375Z" fill="black"/>
<path d="M54.0444 9.375H50.0672V13.3523H54.0444V9.375Z" fill="black"/>
<path d="M58.0217 9.375H54.0444V13.3523H58.0217V9.375Z" fill="black"/>
<path d="M61.999 9.375H58.0217V13.3523H61.999V9.375Z" fill="black"/>
<path d="M65.9763 9.375H61.999V13.3523H65.9763V9.375Z" fill="black"/>
<path d="M73.9308 9.375H69.9535V13.3523H73.9308V9.375Z" fill="black"/>
<path d="M101.772 9.375H97.7944V13.3523H101.772V9.375Z" fill="black"/>
<path d="M109.726 9.375H105.749V13.3523H109.726V9.375Z" fill="black"/>
<path d="M117.681 9.375H113.704V13.3523H117.681V9.375Z" fill="black"/>
<path d="M121.658 9.375H117.681V13.3523H121.658V9.375Z" fill="black"/>
<path d="M125.635 9.375H121.658V13.3523H125.635V9.375Z" fill="black"/>
<path d="M129.613 9.375H125.635V13.3523H129.613V9.375Z" fill="black"/>
<path d="M133.59 9.375H129.613V13.3523H133.59V9.375Z" fill="black"/>
<path d="M137.567 9.375H133.59V13.3523H137.567V9.375Z" fill="black"/>
<path d="M141.544 9.375H137.567V13.3523H141.544V9.375Z" fill="black"/>
<path d="M14.2717 13.3523H10.2944V17.3295H14.2717V13.3523Z" fill="black"/>
<path d="M38.1353 13.3523H34.1581V17.3295H38.1353V13.3523Z" fill="black"/>
<path d="M58.0217 13.3523H54.0444V17.3295H58.0217V13.3523Z" fill="black"/>
<path d="M61.999 13.3523H58.0217V17.3295H61.999V13.3523Z" fill="black"/>
<path d="M65.9763 13.3523H61.999V17.3295H65.9763V13.3523Z" fill="black"/>
<path d="M69.9535 13.3523H65.9763V17.3295H69.9535V13.3523Z" fill="black"/>
<path d="M73.9308 13.3523H69.9535V17.3295H73.9308V13.3523Z" fill="black"/>
<path d="M77.9081 13.3523H73.9308V17.3295H77.9081V13.3523Z" fill="black"/>
<path d="M85.8626 13.3523H81.8853V17.3295H85.8626V13.3523Z" fill="black"/>
<path d="M89.8399 13.3523H85.8626V17.3295H89.8399V13.3523Z" fill="black"/>
<path d="M97.7944 13.3523H93.8172V17.3295H97.7944V13.3523Z" fill="black"/>
<path d="M101.772 13.3523H97.7944V17.3295H101.772V13.3523Z" fill="black"/>
<path d="M109.726 13.3523H105.749V17.3295H109.726V13.3523Z" fill="black"/>
<path d="M117.681 13.3523H113.704V17.3295H117.681V13.3523Z" fill="black"/>
<path d="M141.544 13.3523H137.567V17.3295H141.544V13.3523Z" fill="black"/>
<path d="M14.2717 17.3295H10.2944V21.3068H14.2717V17.3295Z" fill="black"/>
<path d="M22.2263 17.3295H18.249V21.3068H22.2263V17.3295Z" fill="black"/>
<path d="M26.2035 17.3295H22.2263V21.3068H26.2035V17.3295Z" fill="black"/>
<path d="M30.1808 17.3295H26.2035V21.3068H30.1808V17.3295Z" fill="black"/>
<path d="M38.1353 17.3295H34.1581V21.3068H38.1353V17.3295Z" fill="black"/>
<path d="M46.0899 17.3295H42.1126V21.3068H46.0899V17.3295Z" fill="black"/>
<path d="M54.0444 17.3295H50.0672V21.3068H54.0444V17.3295Z" fill="black"/>
<path d="M65.9763 17.3295H61.999V21.3068H65.9763V17.3295Z" fill="black"/>
<path d="M77.9081 17.3295H73.9308V21.3068H77.9081V17.3295Z" fill="black"/>
<path d="M81.8853 17.3295H77.9081V21.3068H81.8853V17.3295Z" fill="black"/>
<path d="M89.8399 17.3295H85.8626L85.8626 21.3068H89.8399V17.3295Z" fill="black"/>
<path d="M93.8172 17.3295H89.8399V21.3068H93.8172V17.3295Z" fill="black"/>
<path d="M97.7944 17.3295H93.8172V21.3068H97.7944V17.3295Z" fill="black"/>
<path d="M117.681 17.3295H113.704V21.3068H117.681V17.3295Z" fill="black"/>
<path d="M125.635 17.3295H121.658V21.3068H125.635V17.3295Z" fill="black"/>
<path d="M129.613 17.3295H125.635V21.3068H129.613V17.3295Z" fill="black"/>
<path d="M133.59 17.3295H129.613V21.3068H133.59V17.3295Z" fill="black"/>
<path d="M141.544 17.3295H137.567V21.3068H141.544V17.3295Z" fill="black"/>
<path d="M14.2717 21.3068H10.2944V25.2841H14.2717V21.3068Z" fill="black"/>
<path d="M22.2263 21.3068H18.249V25.2841H22.2263V21.3068Z" fill="black"/>
<path d="M26.2035 21.3068H22.2263V25.2841H26.2035V21.3068Z" fill="black"/>
<path d="M30.1808 21.3068H26.2035V25.2841H30.1808V21.3068Z" fill="black"/>
<path d="M38.1353 21.3068H34.1581V25.2841H38.1353V21.3068Z" fill="black"/>
<path d="M50.0672 21.3068H46.0899V25.2841H50.0672V21.3068Z" fill="black"/>
<path d="M58.0217 21.3068H54.0444V25.2841H58.0217V21.3068Z" fill="black"/>
<path d="M73.9308 21.3068H69.9535V25.2841H73.9308V21.3068Z" fill="black"/>
<path d="M89.8399 21.3068H85.8626V25.2841H89.8399V21.3068Z" fill="black"/>
<path d="M93.8172 21.3068H89.8399V25.2841H93.8172V21.3068Z" fill="black"/>
<path d="M101.772 21.3068H97.7944V25.2841H101.772V21.3068Z" fill="black"/>
<path d="M109.726 21.3068H105.749V25.2841H109.726V21.3068Z" fill="black"/>
<path d="M117.681 21.3068H113.704V25.2841H117.681V21.3068Z" fill="black"/>
<path d="M125.635 21.3068H121.658V25.2841H125.635V21.3068Z" fill="black"/>
<path d="M129.613 21.3068H125.635V25.2841H129.613V21.3068Z" fill="black"/>
<path d="M133.59 21.3068H129.613V25.2841H133.59V21.3068Z" fill="black"/>
<path d="M141.544 21.3068H137.567V25.2841H141.544V21.3068Z" fill="black"/>
<path d="M14.2717 25.2841H10.2944V29.2614H14.2717V25.2841Z" fill="black"/>
<path d="M22.2263 25.2841H18.249V29.2614H22.2263V25.2841Z" fill="black"/>
<path d="M26.2035 25.2841H22.2263V29.2614H26.2035V25.2841Z" fill="black"/>
<path d="M30.1808 25.2841H26.2035V29.2614H30.1808V25.2841Z" fill="black"/>
<path d="M38.1353 25.2841H34.1581V29.2614H38.1353V25.2841Z" fill="black"/>
<path d="M50.0672 25.2841H46.0899V29.2614H50.0672V25.2841Z" fill="black"/>
<path d="M58.0217 25.2841H54.0444V29.2614H58.0217V25.2841Z" fill="black"/>
<path d="M61.999 25.2841H58.0217V29.2614H61.999V25.2841Z" fill="black"/>
<path d="M69.9535 25.2841H65.9763V29.2614H69.9535V25.2841Z" fill="black"/>
<path d="M81.8853 25.2841H77.9081V29.2614H81.8853V25.2841Z" fill="black"/>
<path d="M85.8626 25.2841H81.8853V29.2614H85.8626L85.8626 25.2841Z" fill="black"/>
<path d="M97.7944 25.2841H93.8172V29.2614H97.7944V25.2841Z" fill="black"/>
<path d="M101.772 25.2841H97.7944V29.2614H101.772V25.2841Z" fill="black"/>
<path d="M117.681 25.2841H113.704V29.2614H117.681V25.2841Z" fill="black"/>
<path d="M125.635 25.2841H121.658V29.2614H125.635V25.2841Z" fill="black"/>
<path d="M129.613 25.2841H125.635V29.2614H129.613V25.2841Z" fill="black"/>
<path d="M133.59 25.2841H129.613V29.2614H133.59V25.2841Z" fill="black"/>
<path d="M141.544 25.2841H137.567V29.2614H141.544V25.2841Z" fill="black"/>
<path d="M14.2717 29.2614H10.2944V33.2386H14.2717V29.2614Z" fill="black"/>
<path d="M38.1353 29.2614H34.1581V33.2386H38.1353V29.2614Z" fill="black"/>
<path d="M58.0217 29.2614H54.0444V33.2386H58.0217V29.2614Z" fill="black"/>
<path d="M65.9763 29.2614H61.999V33.2386H65.9763V29.2614Z" fill="black"/>
<path d="M73.9308 29.2614H69.9535V33.2386H73.9308V29.2614Z" fill="black"/>
<path d="M77.9081 29.2614H73.9308V33.2386H77.9081V29.2614Z" fill="black"/>
<path d="M89.8399 29.2614H85.8626L85.8626 33.2386H89.8399V29.2614Z" fill="black"/>
<path d="M97.7944 29.2614H93.8172V33.2386H97.7944V29.2614Z" fill="black"/>
<path d="M101.772 29.2614H97.7944V33.2386H101.772V29.2614Z" fill="black"/>
<path d="M105.749 29.2614H101.772V33.2386H105.749V29.2614Z" fill="black"/>
<path d="M117.681 29.2614H113.704V33.2386H117.681V29.2614Z" fill="black"/>
<path d="M141.544 29.2614H137.567V33.2386H141.544V29.2614Z" fill="black"/>
<path d="M14.2717 33.2386H10.2944V37.2159H14.2717V33.2386Z" fill="black"/>
<path d="M18.249 33.2386H14.2717V37.2159H18.249V33.2386Z" fill="black"/>
<path d="M22.2263 33.2386H18.249V37.2159H22.2263V33.2386Z" fill="black"/>
<path d="M26.2035 33.2386H22.2263V37.2159H26.2035V33.2386Z" fill="black"/>
<path d="M30.1808 33.2386H26.2035V37.2159H30.1808V33.2386Z" fill="black"/>
<path d="M34.1581 33.2386H30.1808V37.2159H34.1581V33.2386Z" fill="black"/>
<path d="M38.1353 33.2386H34.1581V37.2159H38.1353V33.2386Z" fill="black"/>
<path d="M46.0899 33.2386H42.1126V37.2159H46.0899V33.2386Z" fill="black"/>
<path d="M54.0444 33.2386H50.0672V37.2159H54.0444V33.2386Z" fill="black"/>
<path d="M61.999 33.2386H58.0217V37.2159H61.999V33.2386Z" fill="black"/>
<path d="M69.9535 33.2386H65.9763V37.2159H69.9535V33.2386Z" fill="black"/>
<path d="M77.9081 33.2386H73.9308V37.2159H77.9081V33.2386Z" fill="black"/>
<path d="M85.8626 33.2386H81.8853V37.2159H85.8626L85.8626 33.2386Z" fill="black"/>
<path d="M93.8172 33.2386H89.8399V37.2159H93.8172V33.2386Z" fill="black"/>
<path d="M101.772 33.2386H97.7944V37.2159H101.772V33.2386Z" fill="black"/>
<path d="M109.726 33.2386H105.749V37.2159H109.726V33.2386Z" fill="black"/>
<path d="M117.681 33.2386H113.704V37.2159H117.681V33.2386Z" fill="black"/>
<path d="M121.658 33.2386H117.681V37.2159H121.658V33.2386Z" fill="black"/>
<path d="M125.635 33.2386H121.658V37.2159H125.635V33.2386Z" fill="black"/>
<path d="M129.613 33.2386H125.635V37.2159H129.613V33.2386Z" fill="black"/>
<path d="M133.59 33.2386H129.613V37.2159H133.59V33.2386Z" fill="black"/>
<path d="M137.567 33.2386H133.59V37.2159H137.567V33.2386Z" fill="black"/>
<path d="M141.544 33.2386H137.567V37.2159H141.544V33.2386Z" fill="black"/>
<path d="M46.0899 37.2159H42.1126V41.1932H46.0899V37.2159Z" fill="black"/>
<path d="M54.0444 37.2159H50.0672V41.1932H54.0444V37.2159Z" fill="black"/>
<path d="M61.999 37.2159H58.0217V41.1932H61.999V37.2159Z" fill="black"/>
<path d="M69.9535 37.2159H65.9763V41.1932H69.9535V37.2159Z" fill="black"/>
<path d="M89.8399 37.2159H85.8626L85.8626 41.1932H89.8399V37.2159Z" fill="black"/>
<path d="M101.772 37.2159H97.7944V41.1932H101.772V37.2159Z" fill="black"/>
<path d="M105.749 37.2159H101.772V41.1932H105.749V37.2159Z" fill="black"/>
<path d="M14.2717 41.1932H10.2944V45.1705H14.2717V41.1932Z" fill="black"/>
<path d="M22.2263 41.1932H18.249V45.1705H22.2263V41.1932Z" fill="black"/>
<path d="M34.1581 41.1932H30.1808V45.1705H34.1581V41.1932Z" fill="black"/>
<path d="M38.1353 41.1932H34.1581V45.1705H38.1353V41.1932Z" fill="black"/>
<path d="M58.0217 41.1932H54.0444V45.1705H58.0217V41.1932Z" fill="black"/>
<path d="M61.999 41.1932H58.0217V45.1705H61.999V41.1932Z" fill="black"/>
<path d="M65.9763 41.1932H61.999V45.1705H65.9763V41.1932Z" fill="black"/>
<path d="M69.9535 41.1932H65.9763V45.1705H69.9535V41.1932Z" fill="black"/>
<path d="M77.9081 41.1932H73.9308V45.1705H77.9081V41.1932Z" fill="black"/>
<path d="M85.8626 41.1932H81.8853V45.1705H85.8626L85.8626 41.1932Z" fill="black"/>
<path d="M89.8399 41.1932H85.8626L85.8626 45.1705H89.8399V41.1932Z" fill="black"/>
<path d="M109.726 41.1932H105.749V45.1705H109.726V41.1932Z" fill="black"/>
<path d="M113.704 41.1932H109.726V45.1705H113.704V41.1932Z" fill="black"/>
<path d="M117.681 41.1932H113.704V45.1705H117.681V41.1932Z" fill="black"/>
<path d="M133.59 41.1932H129.613V45.1705H133.59V41.1932Z" fill="black"/>
<path d="M141.544 41.1932H137.567V45.1705H141.544V41.1932Z" fill="black"/>
<path d="M34.1581 45.1705H30.1808V49.1477H34.1581V45.1705Z" fill="black"/>
<path d="M42.1126 45.1705H38.1353V49.1477H42.1126V45.1705Z" fill="black"/>
<path d="M46.0899 45.1705H42.1126V49.1477H46.0899V45.1705Z" fill="black"/>
<path d="M50.0672 45.1705H46.0899V49.1477H50.0672V45.1705Z" fill="black"/>
<path d="M61.999 45.1705H58.0217V49.1477H61.999V45.1705Z" fill="black"/>
<path d="M77.9081 45.1705H73.9308V49.1477H77.9081V45.1705Z" fill="black"/>
<path d="M81.8853 45.1705H77.9081V49.1477H81.8853V45.1705Z" fill="black"/>
<path d="M85.8626 45.1705H81.8853V49.1477H85.8626V45.1705Z" fill="black"/>
<path d="M89.8399 45.1705H85.8626V49.1477H89.8399V45.1705Z" fill="black"/>
<path d="M97.7944 45.1705H93.8172V49.1477H97.7944V45.1705Z" fill="black"/>
<path d="M101.772 45.1705H97.7944V49.1477H101.772V45.1705Z" fill="black"/>
<path d="M105.749 45.1705H101.772V49.1477H105.749V45.1705Z" fill="black"/>
<path d="M113.704 45.1705H109.726V49.1477H113.704V45.1705Z" fill="black"/>
<path d="M117.681 45.1705H113.704V49.1477H117.681V45.1705Z" fill="black"/>
<path d="M121.658 45.1705H117.681V49.1477H121.658V45.1705Z" fill="black"/>
<path d="M125.635 45.1705H121.658V49.1477H125.635V45.1705Z" fill="black"/>
<path d="M141.544 45.1705H137.567V49.1477H141.544V45.1705Z" fill="black"/>
<path d="M18.249 49.1477H14.2717V53.125H18.249V49.1477Z" fill="black"/>
<path d="M26.2035 49.1477H22.2263V53.125H26.2035V49.1477Z" fill="black"/>
<path d="M30.1808 49.1477H26.2035V53.125H30.1808V49.1477Z" fill="black"/>
<path d="M38.1353 49.1477H34.1581V53.125H38.1353V49.1477Z" fill="black"/>
<path d="M46.0899 49.1477H42.1126V53.125H46.0899V49.1477Z" fill="black"/>
<path d="M50.0672 49.1477H46.0899V53.125H50.0672V49.1477Z" fill="black"/>
<path d="M58.0217 49.1477H54.0444V53.125H58.0217V49.1477Z" fill="black"/>
<path d="M85.8626 49.1477H81.8853V53.125H85.8626V49.1477Z" fill="black"/>
<path d="M113.704 49.1477H109.726V53.125H113.704V49.1477Z" fill="black"/>
<path d="M125.635 49.1477H121.658V53.125H125.635V49.1477Z" fill="black"/>
<path d="M137.567 49.1477H133.59V53.125H137.567V49.1477Z" fill="black"/>
<path d="M14.2717 53.125H10.2944V57.1023H14.2717V53.125Z" fill="black"/>
<path d="M18.249 53.125H14.2717V57.1023H18.249V53.125Z" fill="black"/>
<path d="M22.2263 53.125H18.249V57.1023H22.2263V53.125Z" fill="black"/>
<path d="M26.2035 53.125H22.2263V57.1023H26.2035V53.125Z" fill="black"/>
<path d="M34.1581 53.125H30.1808V57.1023H34.1581V53.125Z" fill="black"/>
<path d="M42.1126 53.125H38.1353V57.1023H42.1126V53.125Z" fill="black"/>
<path d="M54.0444 53.125H50.0672V57.1023H54.0444V53.125Z" fill="black"/>
<path d="M58.0217 53.125H54.0444V57.1023H58.0217V53.125Z" fill="black"/>
<path d="M61.999 53.125H58.0217V57.1023H61.999V53.125Z" fill="black"/>
<path d="M65.9763 53.125H61.999V57.1023H65.9763V53.125Z" fill="black"/>
<path d="M93.8172 53.125H89.8399V57.1023H93.8172V53.125Z" fill="black"/>
<path d="M109.726 53.125H105.749V57.1023H109.726V53.125Z" fill="black"/>
<path d="M113.704 53.125H109.726V57.1023H113.704V53.125Z" fill="black"/>
<path d="M125.635 53.125H121.658V57.1023H125.635V53.125Z" fill="black"/>
<path d="M14.2717 57.1023H10.2944V61.0795H14.2717V57.1023Z" fill="black"/>
<path d="M34.1581 57.1023H30.1808V61.0795H34.1581V57.1023Z" fill="black"/>
<path d="M38.1353 57.1023H34.1581V61.0795H38.1353V57.1023Z" fill="black"/>
<path d="M42.1126 57.1023H38.1353V61.0795H42.1126V57.1023Z" fill="black"/>
<path d="M50.0672 57.1023H46.0899V61.0795H50.0672V57.1023Z" fill="black"/>
<path d="M54.0444 57.1023H50.0672V61.0795H54.0444V57.1023Z" fill="black"/>
<path d="M61.999 57.1023H58.0217V61.0795H61.999V57.1023Z" fill="black"/>
<path d="M65.9763 57.1023H61.999V61.0795H65.9763V57.1023Z" fill="black"/>
<path d="M69.9535 57.1023H65.9763V61.0795H69.9535V57.1023Z" fill="black"/>
<path d="M73.9308 57.1023H69.9535V61.0795H73.9308V57.1023Z" fill="black"/>
<path d="M77.9081 57.1023H73.9308V61.0795H77.9081V57.1023Z" fill="black"/>
<path d="M81.8853 57.1023H77.9081V61.0795H81.8853V57.1023Z" fill="black"/>
<path d="M93.8172 57.1023H89.8399V61.0795H93.8172V57.1023Z" fill="black"/>
<path d="M97.7944 57.1023H93.8172V61.0795H97.7944V57.1023Z" fill="black"/>
<path d="M101.772 57.1023H97.7944V61.0795H101.772V57.1023Z" fill="black"/>
<path d="M105.749 57.1023H101.772V61.0795H105.749V57.1023Z" fill="black"/>
<path d="M109.726 57.1023H105.749V61.0795H109.726V57.1023Z" fill="black"/>
<path d="M117.681 57.1023H113.704V61.0795H117.681V57.1023Z" fill="black"/>
<path d="M121.658 57.1023H117.681V61.0795H121.658V57.1023Z" fill="black"/>
<path d="M129.613 57.1023H125.635V61.0795H129.613V57.1023Z" fill="black"/>
<path d="M137.567 57.1023H133.59V61.0795H137.567V57.1023Z" fill="black"/>
<path d="M141.544 57.1023H137.567V61.0795H141.544V57.1023Z" fill="black"/>
<path d="M14.2717 61.0795H10.2944V65.0568H14.2717V61.0795Z" fill="black"/>
<path d="M22.2263 61.0795H18.249V65.0568H22.2263V61.0795Z" fill="black"/>
<path d="M30.1808 61.0795H26.2035V65.0568H30.1808V61.0795Z" fill="black"/>
<path d="M50.0672 61.0795H46.0899V65.0568H50.0672V61.0795Z" fill="black"/>
<path d="M58.0217 61.0795H54.0444V65.0568H58.0217V61.0795Z" fill="black"/>
<path d="M61.999 61.0795H58.0217V65.0568H61.999V61.0795Z" fill="black"/>
<path d="M65.9763 61.0795H61.999V65.0568H65.9763V61.0795Z" fill="black"/>
<path d="M69.9535 61.0795H65.9763V65.0568H69.9535V61.0795Z" fill="black"/>
<path d="M85.8626 61.0795H81.8853V65.0568H85.8626V61.0795Z" fill="black"/>
<path d="M97.7944 61.0795H93.8172V65.0568H97.7944V61.0795Z" fill="black"/>
<path d="M101.772 61.0795H97.7944V65.0568H101.772V61.0795Z" fill="black"/>
<path d="M105.749 61.0795H101.772V65.0568H105.749V61.0795Z" fill="black"/>
<path d="M121.658 61.0795H117.681V65.0568H121.658V61.0795Z" fill="black"/>
<path d="M125.635 61.0795H121.658V65.0568H125.635V61.0795Z" fill="black"/>
<path d="M129.613 61.0795H125.635V65.0568H129.613V61.0795Z" fill="black"/>
<path d="M137.567 61.0795H133.59V65.0568H137.567V61.0795Z" fill="black"/>
<path d="M141.544 61.0795H137.567V65.0568H141.544V61.0795Z" fill="black"/>
<path d="M34.1581 65.0568H30.1808V69.0341H34.1581V65.0568Z" fill="black"/>
<path d="M38.1353 65.0568H34.1581V69.0341H38.1353V65.0568Z" fill="black"/>
<path d="M69.9535 65.0568H65.9763V69.0341H69.9535V65.0568Z" fill="black"/>
<path d="M85.8626 65.0568H81.8853V69.0341H85.8626V65.0568Z" fill="black"/>
<path d="M109.726 65.0568H105.749V69.0341H109.726V65.0568Z" fill="black"/>
<path d="M121.658 65.0568H117.681V69.0341H121.658V65.0568Z" fill="black"/>
<path d="M129.613 65.0568H125.635V69.0341H129.613V65.0568Z" fill="black"/>
<path d="M141.544 65.0568H137.567V69.0341H141.544V65.0568Z" fill="black"/>
<path d="M22.2263 69.0341H18.249V73.0114H22.2263V69.0341Z" fill="black"/>
<path d="M26.2035 69.0341H22.2263V73.0114H26.2035V69.0341Z" fill="black"/>
<path d="M30.1808 69.0341H26.2035V73.0114H30.1808V69.0341Z" fill="black"/>
<path d="M34.1581 69.0341H30.1808V73.0114H34.1581V69.0341Z" fill="black"/>
<path d="M42.1126 69.0341H38.1353V73.0114H42.1126V69.0341Z" fill="black"/>
<path d="M50.0672 69.0341H46.0899V73.0114H50.0672V69.0341Z" fill="black"/>
<path d="M54.0444 69.0341H50.0672V73.0114H54.0444V69.0341Z" fill="black"/>
<path d="M58.0217 69.0341H54.0444V73.0114H58.0217V69.0341Z" fill="black"/>
<path d="M61.999 69.0341H58.0217V73.0114H61.999V69.0341Z" fill="black"/>
<path d="M69.9535 69.0341H65.9763V73.0114H69.9535V69.0341Z" fill="black"/>
<path d="M77.9081 69.0341H73.9308V73.0114H77.9081V69.0341Z" fill="black"/>
<path d="M81.8853 69.0341H77.9081V73.0114H81.8853V69.0341Z" fill="black"/>
<path d="M85.8626 69.0341H81.8853V73.0114H85.8626V69.0341Z" fill="black"/>
<path d="M105.749 69.0341H101.772V73.0114H105.749V69.0341Z" fill="black"/>
<path d="M113.704 69.0341H109.726V73.0114H113.704V69.0341Z" fill="black"/>
<path d="M117.681 69.0341H113.704V73.0114H117.681V69.0341Z" fill="black"/>
<path d="M125.635 69.0341H121.658V73.0114H125.635V69.0341Z" fill="black"/>
<path d="M133.59 69.0341H129.613V73.0114H133.59V69.0341Z" fill="black"/>
<path d="M141.544 69.0341H137.567V73.0114H141.544V69.0341Z" fill="black"/>
<path d="M18.249 73.0114H14.2717V76.9886H18.249V73.0114Z" fill="black"/>
<path d="M22.2263 73.0114H18.249V76.9886H22.2263V73.0114Z" fill="black"/>
<path d="M38.1353 73.0114H34.1581V76.9886H38.1353V73.0114Z" fill="black"/>
<path d="M42.1126 73.0114H38.1353V76.9886H42.1126V73.0114Z" fill="black"/>
<path d="M46.0899 73.0114H42.1126V76.9886H46.0899V73.0114Z" fill="black"/>
<path d="M50.0672 73.0114H46.0899V76.9886H50.0672V73.0114Z" fill="black"/>
<path d="M54.0444 73.0114H50.0672V76.9886H54.0444V73.0114Z" fill="black"/>
<path d="M58.0217 73.0114H54.0444V76.9886H58.0217V73.0114Z" fill="black"/>
<path d="M81.8853 73.0114H77.9081V76.9886H81.8853V73.0114Z" fill="black"/>
<path d="M85.8626 73.0114H81.8853V76.9886H85.8626V73.0114Z" fill="black"/>
<path d="M89.8399 73.0114H85.8626V76.9886H89.8399V73.0114Z" fill="black"/>
<path d="M93.8172 73.0114H89.8399V76.9886H93.8172V73.0114Z" fill="black"/>
<path d="M97.7944 73.0114H93.8172V76.9886H97.7944V73.0114Z" fill="black"/>
<path d="M101.772 73.0114H97.7944V76.9886H101.772V73.0114Z" fill="black"/>
<path d="M105.749 73.0114H101.772V76.9886H105.749V73.0114Z" fill="black"/>
<path d="M109.726 73.0114H105.749V76.9886H109.726V73.0114Z" fill="black"/>
<path d="M113.704 73.0114H109.726V76.9886H113.704V73.0114Z" fill="black"/>
<path d="M141.544 73.0114H137.567V76.9886H141.544V73.0114Z" fill="black"/>
<path d="M14.2717 76.9886H10.2944V80.9659H14.2717V76.9886Z" fill="black"/>
<path d="M18.249 76.9886H14.2717V80.9659H18.249V76.9886Z" fill="black"/>
<path d="M22.2263 76.9886H18.249V80.9659H22.2263V76.9886Z" fill="black"/>
<path d="M26.2035 76.9886H22.2263V80.9659H26.2035V76.9886Z" fill="black"/>
<path d="M85.8626 76.9886H81.8853V80.9659H85.8626V76.9886Z" fill="black"/>
<path d="M93.8172 76.9886H89.8399V80.9659H93.8172V76.9886Z" fill="black"/>
<path d="M97.7944 76.9886H93.8172V80.9659H97.7944V76.9886Z" fill="black"/>
<path d="M101.772 76.9886H97.7944V80.9659H101.772V76.9886Z" fill="black"/>
<path d="M113.704 76.9886H109.726V80.9659H113.704V76.9886Z" fill="black"/>
<path d="M121.658 76.9886H117.681V80.9659H121.658V76.9886Z" fill="black"/>
<path d="M125.635 76.9886H121.658V80.9659H125.635V76.9886Z" fill="black"/>
<path d="M129.613 76.9886H125.635V80.9659H129.613V76.9886Z" fill="black"/>
<path d="M14.2717 80.9659H10.2944V84.9432H14.2717V80.9659Z" fill="black"/>
<path d="M22.2263 80.9659H18.249V84.9432H22.2263V80.9659Z" fill="black"/>
<path d="M26.2035 80.9659H22.2263V84.9432H26.2035V80.9659Z" fill="black"/>
<path d="M30.1808 80.9659H26.2035V84.9432H30.1808V80.9659Z" fill="black"/>
<path d="M34.1581 80.9659H30.1808V84.9432H34.1581V80.9659Z" fill="black"/>
<path d="M38.1353 80.9659H34.1581V84.9432H38.1353V80.9659Z" fill="black"/>
<path d="M50.0672 80.9659H46.0899V84.9432H50.0672V80.9659Z" fill="black"/>
<path d="M54.0444 80.9659H50.0672V84.9432H54.0444V80.9659Z" fill="black"/>
<path d="M58.0217 80.9659H54.0444V84.9432H58.0217V80.9659Z" fill="black"/>
<path d="M85.8626 80.9659H81.8853V84.9432H85.8626V80.9659Z" fill="black"/>
<path d="M89.8399 80.9659H85.8626V84.9432H89.8399V80.9659Z" fill="black"/>
<path d="M93.8172 80.9659H89.8399V84.9432H93.8172V80.9659Z" fill="black"/>
<path d="M101.772 80.9659H97.7944V84.9432H101.772V80.9659Z" fill="black"/>
<path d="M105.749 80.9659H101.772V84.9432H105.749V80.9659Z" fill="black"/>
<path d="M22.2263 84.9432H18.249V88.9205H22.2263V84.9432Z" fill="black"/>
<path d="M50.0672 84.9432H46.0899V88.9205H50.0672V84.9432Z" fill="black"/>
<path d="M54.0444 84.9432H50.0672V88.9205H54.0444V84.9432Z" fill="black"/>
<path d="M58.0217 84.9432H54.0444V88.9205H58.0217V84.9432Z" fill="black"/>
<path d="M61.999 84.9432L58.0217 84.9432V88.9205H61.999V84.9432Z" fill="black"/>
<path d="M65.9763 84.9432H61.999V88.9205H65.9763V84.9432Z" fill="black"/>
<path d="M69.9535 84.9432H65.9763V88.9205H69.9535V84.9432Z" fill="black"/>
<path d="M81.8853 84.9432L77.9081 84.9432V88.9205H81.8853V84.9432Z" fill="black"/>
<path d="M85.8626 84.9432H81.8853V88.9205H85.8626V84.9432Z" fill="black"/>
<path d="M89.8399 84.9432H85.8626V88.9205H89.8399V84.9432Z" fill="black"/>
<path d="M97.7944 84.9432H93.8172V88.9205H97.7944V84.9432Z" fill="black"/>
<path d="M101.772 84.9432H97.7944V88.9205H101.772V84.9432Z" fill="black"/>
<path d="M105.749 84.9432H101.772V88.9205H105.749V84.9432Z" fill="black"/>
<path d="M109.726 84.9432L105.749 84.9432V88.9205H109.726V84.9432Z" fill="black"/>
<path d="M113.704 84.9432H109.726V88.9205H113.704V84.9432Z" fill="black"/>
<path d="M117.681 84.9432H113.704V88.9205H117.681V84.9432Z" fill="black"/>
<path d="M129.613 84.9432H125.635V88.9205H129.613V84.9432Z" fill="black"/>
<path d="M133.59 84.9432H129.613V88.9205H133.59V84.9432Z" fill="black"/>
<path d="M141.544 84.9432H137.567V88.9205H141.544V84.9432Z" fill="black"/>
<path d="M18.249 88.9205H14.2717V92.8977H18.249V88.9205Z" fill="black"/>
<path d="M22.2263 88.9205H18.249V92.8977H22.2263V88.9205Z" fill="black"/>
<path d="M34.1581 88.9205H30.1808V92.8977H34.1581V88.9205Z" fill="black"/>
<path d="M38.1353 88.9205H34.1581V92.8977H38.1353V88.9205Z" fill="black"/>
<path d="M42.1126 88.9205H38.1353V92.8977H42.1126V88.9205Z" fill="black"/>
<path d="M46.0899 88.9205H42.1126V92.8977H46.0899V88.9205Z" fill="black"/>
<path d="M50.0672 88.9205H46.0899V92.8977H50.0672V88.9205Z" fill="black"/>
<path d="M61.999 88.9205H58.0217V92.8977H61.999V88.9205Z" fill="black"/>
<path d="M77.9081 88.9205H73.9308V92.8977H77.9081V88.9205Z" fill="black"/>
<path d="M81.8853 88.9205H77.9081V92.8977H81.8853V88.9205Z" fill="black"/>
<path d="M89.8399 88.9205H85.8626L85.8626 92.8977H89.8399V88.9205Z" fill="black"/>
<path d="M97.7944 88.9205H93.8172V92.8977H97.7944V88.9205Z" fill="black"/>
<path d="M101.772 88.9205H97.7944V92.8977H101.772V88.9205Z" fill="black"/>
<path d="M109.726 88.9205H105.749V92.8977H109.726V88.9205Z" fill="black"/>
<path d="M121.658 88.9205H117.681V92.8977H121.658V88.9205Z" fill="black"/>
<path d="M125.635 88.9205H121.658V92.8977H125.635V88.9205Z" fill="black"/>
<path d="M129.613 88.9205H125.635V92.8977H129.613V88.9205Z" fill="black"/>
<path d="M133.59 88.9205H129.613V92.8977H133.59V88.9205Z" fill="black"/>
<path d="M137.567 88.9205H133.59V92.8977H137.567V88.9205Z" fill="black"/>
<path d="M141.544 88.9205H137.567V92.8977H141.544V88.9205Z" fill="black"/>
<path d="M18.249 92.8977H14.2717V96.875H18.249V92.8977Z" fill="black"/>
<path d="M22.2263 92.8977H18.249V96.875H22.2263V92.8977Z" fill="black"/>
<path d="M26.2035 92.8977H22.2263V96.875H26.2035V92.8977Z" fill="black"/>
<path d="M50.0672 92.8977H46.0899V96.875H50.0672V92.8977Z" fill="black"/>
<path d="M65.9763 92.8977H61.999V96.875H65.9763V92.8977Z" fill="black"/>
<path d="M85.8626 92.8977H81.8853V96.875H85.8626L85.8626 92.8977Z" fill="black"/>
<path d="M129.613 92.8977H125.635V96.875H129.613V92.8977Z" fill="black"/>
<path d="M14.2717 96.875H10.2944V100.852H14.2717V96.875Z" fill="black"/>
<path d="M18.249 96.875H14.2717V100.852H18.249V96.875Z" fill="black"/>
<path d="M22.2263 96.875H18.249V100.852H22.2263V96.875Z" fill="black"/>
<path d="M26.2035 96.875H22.2263V100.852H26.2035V96.875Z" fill="black"/>
<path d="M30.1808 96.875H26.2035V100.852H30.1808V96.875Z" fill="black"/>
<path d="M34.1581 96.875H30.1808V100.852H34.1581V96.875Z" fill="black"/>
<path d="M38.1353 96.875H34.1581V100.852H38.1353V96.875Z" fill="black"/>
<path d="M46.0899 96.875H42.1126V100.852H46.0899V96.875Z" fill="black"/>
<path d="M89.8399 96.875H85.8626L85.8626 100.852H89.8399V96.875Z" fill="black"/>
<path d="M101.772 96.875H97.7944V100.852H101.772V96.875Z" fill="black"/>
<path d="M105.749 96.875H101.772V100.852H105.749V96.875Z" fill="black"/>
<path d="M117.681 96.875H113.704V100.852H117.681V96.875Z" fill="black"/>
<path d="M121.658 96.875H117.681V100.852H121.658V96.875Z" fill="black"/>
<path d="M129.613 96.875H125.635V100.852H129.613V96.875Z" fill="black"/>
<path d="M137.567 96.875H133.59V100.852H137.567V96.875Z" fill="black"/>
<path d="M22.2263 100.852H18.249V104.83H22.2263V100.852Z" fill="black"/>
<path d="M42.1126 100.852H38.1353V104.83H42.1126V100.852Z" fill="black"/>
<path d="M50.0672 100.852H46.0899V104.83H50.0672V100.852Z" fill="black"/>
<path d="M54.0444 100.852H50.0672V104.83H54.0444V100.852Z" fill="black"/>
<path d="M58.0217 100.852H54.0444V104.83H58.0217V100.852Z" fill="black"/>
<path d="M61.999 100.852H58.0217V104.83H61.999V100.852Z" fill="black"/>
<path d="M65.9763 100.852H61.999V104.83H65.9763V100.852Z" fill="black"/>
<path d="M69.9535 100.852H65.9763V104.83H69.9535V100.852Z" fill="black"/>
<path d="M73.9308 100.852H69.9535V104.83H73.9308V100.852Z" fill="black"/>
<path d="M77.9081 100.852H73.9308V104.83H77.9081V100.852Z" fill="black"/>
<path d="M81.8853 100.852H77.9081V104.83H81.8853V100.852Z" fill="black"/>
<path d="M85.8626 100.852H81.8853V104.83H85.8626L85.8626 100.852Z" fill="black"/>
<path d="M89.8399 100.852H85.8626L85.8626 104.83H89.8399V100.852Z" fill="black"/>
<path d="M93.8172 100.852H89.8399V104.83H93.8172V100.852Z" fill="black"/>
<path d="M97.7944 100.852H93.8172V104.83H97.7944V100.852Z" fill="black"/>
<path d="M101.772 100.852H97.7944V104.83H101.772V100.852Z" fill="black"/>
<path d="M105.749 100.852H101.772V104.83H105.749V100.852Z" fill="black"/>
<path d="M113.704 100.852H109.726V104.83H113.704V100.852Z" fill="black"/>
<path d="M121.658 100.852H117.681V104.83H121.658V100.852Z" fill="black"/>
<path d="M125.635 100.852H121.658V104.83H125.635V100.852Z" fill="black"/>
<path d="M129.613 100.852H125.635V104.83H129.613V100.852Z" fill="black"/>
<path d="M141.544 100.852H137.567V104.83H141.544V100.852Z" fill="black"/>
<path d="M18.249 104.83H14.2717V108.807H18.249V104.83Z" fill="black"/>
<path d="M34.1581 104.83H30.1808V108.807H34.1581V104.83Z" fill="black"/>
<path d="M38.1353 104.83H34.1581V108.807H38.1353V104.83Z" fill="black"/>
<path d="M42.1126 104.83H38.1353V108.807H42.1126V104.83Z" fill="black"/>
<path d="M46.0899 104.83H42.1126V108.807H46.0899V104.83Z" fill="black"/>
<path d="M50.0672 104.83H46.0899V108.807H50.0672V104.83Z" fill="black"/>
<path d="M61.999 104.83H58.0217V108.807H61.999V104.83Z" fill="black"/>
<path d="M65.9763 104.83H61.999V108.807H65.9763V104.83Z" fill="black"/>
<path d="M77.9081 104.83H73.9308V108.807H77.9081V104.83Z" fill="black"/>
<path d="M81.8853 104.83H77.9081V108.807H81.8853V104.83Z" fill="black"/>
<path d="M85.8626 104.83H81.8853V108.807H85.8626V104.83Z" fill="black"/>
<path d="M93.8172 104.83H89.8399V108.807H93.8172V104.83Z" fill="black"/>
<path d="M97.7944 104.83H93.8172V108.807H97.7944V104.83Z" fill="black"/>
<path d="M105.749 104.83H101.772V108.807H105.749V104.83Z" fill="black"/>
<path d="M109.726 104.83H105.749V108.807H109.726V104.83Z" fill="black"/>
<path d="M113.704 104.83H109.726V108.807H113.704V104.83Z" fill="black"/>
<path d="M117.681 104.83H113.704V108.807H117.681V104.83Z" fill="black"/>
<path d="M121.658 104.83H117.681V108.807H121.658V104.83Z" fill="black"/>
<path d="M125.635 104.83H121.658V108.807H125.635V104.83Z" fill="black"/>
<path d="M133.59 104.83H129.613V108.807H133.59V104.83Z" fill="black"/>
<path d="M137.567 104.83H133.59V108.807H137.567V104.83Z" fill="black"/>
<path d="M141.544 104.83H137.567V108.807H141.544V104.83Z" fill="black"/>
<path d="M54.0444 108.807H50.0672V112.784H54.0444V108.807Z" fill="black"/>
<path d="M58.0217 108.807H54.0444V112.784H58.0217V108.807Z" fill="black"/>
<path d="M65.9763 108.807H61.999V112.784H65.9763V108.807Z" fill="black"/>
<path d="M73.9308 108.807H69.9535V112.784H73.9308V108.807Z" fill="black"/>
<path d="M81.8853 108.807H77.9081V112.784H81.8853V108.807Z" fill="black"/>
<path d="M97.7944 108.807H93.8172V112.784H97.7944V108.807Z" fill="black"/>
<path d="M109.726 108.807H105.749V112.784H109.726V108.807Z" fill="black"/>
<path d="M125.635 108.807H121.658V112.784H125.635V108.807Z" fill="black"/>
<path d="M129.613 108.807H125.635V112.784H129.613V108.807Z" fill="black"/>
<path d="M133.59 108.807H129.613V112.784H133.59V108.807Z" fill="black"/>
<path d="M14.2717 112.784H10.2944V116.761H14.2717V112.784Z" fill="black"/>
<path d="M18.249 112.784H14.2717V116.761H18.249V112.784Z" fill="black"/>
<path d="M22.2263 112.784H18.249V116.761H22.2263V112.784Z" fill="black"/>
<path d="M26.2035 112.784H22.2263V116.761H26.2035V112.784Z" fill="black"/>
<path d="M30.1808 112.784H26.2035V116.761H30.1808V112.784Z" fill="black"/>
<path d="M34.1581 112.784H30.1808V116.761H34.1581V112.784Z" fill="black"/>
<path d="M38.1353 112.784H34.1581V116.761H38.1353V112.784Z" fill="black"/>
<path d="M50.0672 112.784H46.0899V116.761H50.0672V112.784Z" fill="black"/>
<path d="M54.0444 112.784H50.0672V116.761H54.0444V112.784Z" fill="black"/>
<path d="M58.0217 112.784H54.0444V116.761H58.0217V112.784Z" fill="black"/>
<path d="M61.999 112.784H58.0217V116.761H61.999V112.784Z" fill="black"/>
<path d="M65.9763 112.784H61.999V116.761H65.9763V112.784Z" fill="black"/>
<path d="M73.9308 112.784H69.9535V116.761H73.9308V112.784Z" fill="black"/>
<path d="M77.9081 112.784H73.9308V116.761H77.9081V112.784Z" fill="black"/>
<path d="M81.8853 112.784H77.9081V116.761H81.8853V112.784Z" fill="black"/>
<path d="M85.8626 112.784H81.8853V116.761H85.8626V112.784Z" fill="black"/>
<path d="M93.8172 112.784H89.8399V116.761H93.8172V112.784Z" fill="black"/>
<path d="M97.7944 112.784H93.8172V116.761H97.7944V112.784Z" fill="black"/>
<path d="M101.772 112.784H97.7944V116.761H101.772V112.784Z" fill="black"/>
<path d="M105.749 112.784H101.772V116.761H105.749V112.784Z" fill="black"/>
<path d="M109.726 112.784H105.749V116.761H109.726V112.784Z" fill="black"/>
<path d="M117.681 112.784H113.704V116.761H117.681V112.784Z" fill="black"/>
<path d="M125.635 112.784H121.658V116.761H125.635V112.784Z" fill="black"/>
<path d="M14.2717 116.761H10.2944V120.739H14.2717V116.761Z" fill="black"/>
<path d="M38.1353 116.761H34.1581V120.739H38.1353V116.761Z" fill="black"/>
<path d="M46.0899 116.761H42.1126V120.739H46.0899V116.761Z" fill="black"/>
<path d="M58.0217 116.761H54.0444V120.739H58.0217V116.761Z" fill="black"/>
<path d="M61.999 116.761H58.0217V120.739H61.999V116.761Z" fill="black"/>
<path d="M65.9763 116.761H61.999V120.739H65.9763V116.761Z" fill="black"/>
<path d="M73.9308 116.761H69.9535V120.739H73.9308V116.761Z" fill="black"/>
<path d="M77.9081 116.761H73.9308V120.739H77.9081V116.761Z" fill="black"/>
<path d="M85.8626 116.761H81.8853V120.739H85.8626V116.761Z" fill="black"/>
<path d="M93.8172 116.761H89.8399V120.739H93.8172V116.761Z" fill="black"/>
<path d="M97.7944 116.761H93.8172V120.739H97.7944V116.761Z" fill="black"/>
<path d="M101.772 116.761H97.7944V120.739H101.772V116.761Z" fill="black"/>
<path d="M109.726 116.761H105.749V120.739H109.726V116.761Z" fill="black"/>
<path d="M125.635 116.761H121.658V120.739H125.635V116.761Z" fill="black"/>
<path d="M129.613 116.761H125.635V120.739H129.613V116.761Z" fill="black"/>
<path d="M133.59 116.761H129.613V120.739H133.59V116.761Z" fill="black"/>
<path d="M137.567 116.761H133.59V120.739H137.567V116.761Z" fill="black"/>
<path d="M141.544 116.761H137.567V120.739H141.544V116.761Z" fill="black"/>
<path d="M14.2717 120.739H10.2944V124.716H14.2717V120.739Z" fill="black"/>
<path d="M22.2263 120.739H18.249V124.716H22.2263V120.739Z" fill="black"/>
<path d="M26.2035 120.739H22.2263V124.716H26.2035V120.739Z" fill="black"/>
<path d="M30.1808 120.739H26.2035V124.716H30.1808V120.739Z" fill="black"/>
<path d="M38.1353 120.739H34.1581V124.716H38.1353V120.739Z" fill="black"/>
<path d="M58.0217 120.739H54.0444V124.716H58.0217V120.739Z" fill="black"/>
<path d="M69.9535 120.739H65.9763V124.716H69.9535V120.739Z" fill="black"/>
<path d="M89.8399 120.739H85.8626L85.8626 124.716H89.8399V120.739Z" fill="black"/>
<path d="M105.749 120.739H101.772V124.716H105.749V120.739Z" fill="black"/>
<path d="M109.726 120.739H105.749V124.716H109.726V120.739Z" fill="black"/>
<path d="M113.704 120.739H109.726V124.716H113.704V120.739Z" fill="black"/>
<path d="M117.681 120.739H113.704V124.716H117.681V120.739Z" fill="black"/>
<path d="M121.658 120.739H117.681V124.716H121.658V120.739Z" fill="black"/>
<path d="M125.635 120.739H121.658V124.716H125.635V120.739Z" fill="black"/>
<path d="M129.613 120.739H125.635V124.716H129.613V120.739Z" fill="black"/>
<path d="M133.59 120.739H129.613V124.716H133.59V120.739Z" fill="black"/>
<path d="M137.567 120.739H133.59V124.716H137.567V120.739Z" fill="black"/>
<path d="M141.544 120.739H137.567V124.716H141.544V120.739Z" fill="black"/>
<path d="M14.2717 124.716H10.2944V128.693H14.2717V124.716Z" fill="black"/>
<path d="M22.2263 124.716H18.249V128.693H22.2263V124.716Z" fill="black"/>
<path d="M26.2035 124.716H22.2263V128.693H26.2035V124.716Z" fill="black"/>
<path d="M30.1808 124.716H26.2035V128.693H30.1808V124.716Z" fill="black"/>
<path d="M38.1353 124.716H34.1581V128.693H38.1353V124.716Z" fill="black"/>
<path d="M50.0672 124.716H46.0899V128.693H50.0672V124.716Z" fill="black"/>
<path d="M54.0444 124.716H50.0672V128.693H54.0444V124.716Z" fill="black"/>
<path d="M58.0217 124.716H54.0444V128.693H58.0217V124.716Z" fill="black"/>
<path d="M69.9535 124.716H65.9763V128.693H69.9535V124.716Z" fill="black"/>
<path d="M73.9308 124.716H69.9535V128.693H73.9308V124.716Z" fill="black"/>
<path d="M81.8853 124.716H77.9081V128.693H81.8853V124.716Z" fill="black"/>
<path d="M85.8626 124.716H81.8853V128.693H85.8626L85.8626 124.716Z" fill="black"/>
<path d="M89.8399 124.716H85.8626L85.8626 128.693H89.8399V124.716Z" fill="black"/>
<path d="M101.772 124.716H97.7944V128.693H101.772V124.716Z" fill="black"/>
<path d="M105.749 124.716H101.772V128.693H105.749V124.716Z" fill="black"/>
<path d="M109.726 124.716H105.749V128.693H109.726V124.716Z" fill="black"/>
<path d="M117.681 124.716H113.704V128.693H117.681V124.716Z" fill="black"/>
<path d="M121.658 124.716H117.681V128.693H121.658V124.716Z" fill="black"/>
<path d="M129.613 124.716H125.635V128.693H129.613V124.716Z" fill="black"/>
<path d="M137.567 124.716H133.59V128.693H137.567V124.716Z" fill="black"/>
<path d="M141.544 124.716H137.567V128.693H141.544V124.716Z" fill="black"/>
<path d="M14.2717 128.693H10.2944V132.67H14.2717V128.693Z" fill="black"/>
<path d="M22.2263 128.693H18.249V132.67H22.2263V128.693Z" fill="black"/>
<path d="M26.2035 128.693H22.2263V132.67H26.2035V128.693Z" fill="black"/>
<path d="M30.1808 128.693H26.2035V132.67H30.1808V128.693Z" fill="black"/>
<path d="M38.1353 128.693H34.1581V132.67H38.1353V128.693Z" fill="black"/>
<path d="M46.0899 128.693H42.1126V132.67H46.0899V128.693Z" fill="black"/>
<path d="M54.0444 128.693H50.0672V132.67H54.0444V128.693Z" fill="black"/>
<path d="M69.9535 128.693H65.9763V132.67H69.9535V128.693Z" fill="black"/>
<path d="M85.8626 128.693H81.8853V132.67H85.8626V128.693Z" fill="black"/>
<path d="M117.681 128.693H113.704V132.67H117.681V128.693Z" fill="black"/>
<path d="M129.613 128.693H125.635V132.67H129.613V128.693Z" fill="black"/>
<path d="M14.2717 132.67H10.2944V136.648H14.2717V132.67Z" fill="black"/>
<path d="M38.1353 132.67H34.1581V136.648H38.1353V132.67Z" fill="black"/>
<path d="M50.0672 132.67H46.0899V136.648H50.0672V132.67Z" fill="black"/>
<path d="M58.0217 132.67H54.0444V136.648H58.0217V132.67Z" fill="black"/>
<path d="M65.9763 132.67H61.999V136.648H65.9763V132.67Z" fill="black"/>
<path d="M77.9081 132.67H73.9308V136.648H77.9081V132.67Z" fill="black"/>
<path d="M85.8626 132.67H81.8853V136.648H85.8626V132.67Z" fill="black"/>
<path d="M89.8399 132.67H85.8626V136.648H89.8399V132.67Z" fill="black"/>
<path d="M93.8172 132.67H89.8399V136.648H93.8172V132.67Z" fill="black"/>
<path d="M105.749 132.67H101.772V136.648H105.749V132.67Z" fill="black"/>
<path d="M113.704 132.67H109.726V136.648H113.704V132.67Z" fill="black"/>
<path d="M121.658 132.67H117.681V136.648H121.658V132.67Z" fill="black"/>
<path d="M129.613 132.67H125.635V136.648H129.613V132.67Z" fill="black"/>
<path d="M133.59 132.67H129.613V136.648H133.59V132.67Z" fill="black"/>
<path d="M14.2717 136.648H10.2944V140.625H14.2717V136.648Z" fill="black"/>
<path d="M18.249 136.648H14.2717V140.625H18.249V136.648Z" fill="black"/>
<path d="M22.2263 136.648H18.249V140.625H22.2263V136.648Z" fill="black"/>
<path d="M26.2035 136.648H22.2263V140.625H26.2035V136.648Z" fill="black"/>
<path d="M30.1808 136.648H26.2035V140.625H30.1808V136.648Z" fill="black"/>
<path d="M34.1581 136.648H30.1808V140.625H34.1581V136.648Z" fill="black"/>
<path d="M38.1353 136.648H34.1581V140.625H38.1353V136.648Z" fill="black"/>
<path d="M46.0899 136.648H42.1126V140.625H46.0899V136.648Z" fill="black"/>
<path d="M50.0672 136.648H46.0899V140.625H50.0672V136.648Z" fill="black"/>
<path d="M54.0444 136.648H50.0672V140.625H54.0444V136.648Z" fill="black"/>
<path d="M65.9763 136.648H61.999V140.625H65.9763V136.648Z" fill="black"/>
<path d="M69.9535 136.648H65.9763V140.625H69.9535V136.648Z" fill="black"/>
<path d="M81.8853 136.648H77.9081V140.625H81.8853V136.648Z" fill="black"/>
<path d="M85.8626 136.648H81.8853V140.625H85.8626V136.648Z" fill="black"/>
<path d="M89.8399 136.648H85.8626V140.625H89.8399V136.648Z" fill="black"/>
<path d="M93.8172 136.648H89.8399V140.625H93.8172V136.648Z" fill="black"/>
<path d="M97.7944 136.648H93.8172V140.625H97.7944V136.648Z" fill="black"/>
<path d="M101.772 136.648H97.7944V140.625H101.772V136.648Z" fill="black"/>
<path d="M105.749 136.648H101.772V140.625H105.749V136.648Z" fill="black"/>
<path d="M109.726 136.648H105.749V140.625H109.726V136.648Z" fill="black"/>
<path d="M113.704 136.648H109.726V140.625H113.704V136.648Z" fill="black"/>
<path d="M117.681 136.648H113.704V140.625H117.681V136.648Z" fill="black"/>
<path d="M121.658 136.648H117.681V140.625H121.658V136.648Z" fill="black"/>
<path d="M129.613 136.648H125.635V140.625H129.613V136.648Z" fill="black"/>
<path d="M133.59 136.648H129.613V140.625H133.59V136.648Z" fill="black"/>
<path d="M141.544 136.648H137.567V140.625H141.544V136.648Z" fill="black"/>
</g>
<defs>
<clipPath id="clip0_4133_13698">
<rect width="150" height="150" fill="white" transform="translate(0.919434)"/>
</clipPath>
</defs>
</svg>
