<svg width="41" height="40" viewBox="0 0 41 40" fill="none" xmlns="http://www.w3.org/2000/svg">
<path d="M18 14.5V17.5H15V14.5H18ZM19.5 13H13.5V19H19.5V13ZM18 22.5V25.5H15V22.5H18ZM19.5 21H13.5V27H19.5V21ZM26 14.5V17.5H23V14.5H26ZM27.5 13H21.5V19H27.5V13ZM21.5 21H23V22.5H21.5V21ZM23 22.5H24.5V24H23V22.5ZM24.5 21H26V22.5H24.5V21ZM21.5 24H23V25.5H21.5V24ZM23 25.5H24.5V27H23V25.5ZM24.5 24H26V25.5H24.5V24ZM26 22.5H27.5V24H26V22.5ZM26 25.5H27.5V27H26V25.5ZM29.5 15C28.95 15 28.5 14.55 28.5 14V12H26.5C25.95 12 25.5 11.55 25.5 11C25.5 10.45 25.95 10 26.5 10H29.5C30.05 10 30.5 10.45 30.5 11V14C30.5 14.55 30.05 15 29.5 15ZM30.5 29V26C30.5 25.45 30.05 25 29.5 25C28.95 25 28.5 25.45 28.5 26V28H26.5C25.95 28 25.5 28.45 25.5 29C25.5 29.55 25.95 30 26.5 30H29.5C30.05 30 30.5 29.55 30.5 29ZM11.5 30H14.5C15.05 30 15.5 29.55 15.5 29C15.5 28.45 15.05 28 14.5 28H12.5V26C12.5 25.45 12.05 25 11.5 25C10.95 25 10.5 25.45 10.5 26V29C10.5 29.55 10.95 30 11.5 30ZM10.5 11V14C10.5 14.55 10.95 15 11.5 15C12.05 15 12.5 14.55 12.5 14V12H14.5C15.05 12 15.5 11.55 15.5 11C15.5 10.45 15.05 10 14.5 10H11.5C10.95 10 10.5 10.45 10.5 11Z" fill="white"/>
</svg>
