<svg width="24" height="24" viewBox="0 0 26 27" fill="none" xmlns="http://www.w3.org/2000/svg">
<path d="M6.33333 1H2.33333C1.59695 1 1 1.59695 1 2.33333V6.33333C1 7.06971 1.59695 7.66667 2.33333 7.66667H6.33333C7.06971 7.66667 7.66667 7.06971 7.66667 6.33333V2.33333C7.66667 1.59695 7.06971 1 6.33333 1Z" stroke="#0A3967" stroke-width="2" stroke-linecap="round" stroke-linejoin="round"/>
<path d="M23.6667 1H19.6667C18.9303 1 18.3334 1.59695 18.3334 2.33333V6.33333C18.3334 7.06971 18.9303 7.66667 19.6667 7.66667H23.6667C24.4031 7.66667 25 7.06971 25 6.33333V2.33333C25 1.59695 24.4031 1 23.6667 1Z" stroke="#0A3967" stroke-width="2" stroke-linecap="round" stroke-linejoin="round"/>
<path d="M6.33333 18.3333H2.33333C1.59695 18.3333 1 18.9303 1 19.6666V23.6666C1 24.403 1.59695 25 2.33333 25H6.33333C7.06971 25 7.66667 24.403 7.66667 23.6666V19.6666C7.66667 18.9303 7.06971 18.3333 6.33333 18.3333Z" stroke="#0A3967" stroke-width="2" stroke-linecap="round" stroke-linejoin="round"/>
<path d="M25 18.3333H21C20.2928 18.3333 19.6145 18.6143 19.1144 19.1144C18.6143 19.6145 18.3333 20.2928 18.3333 21V25M25 25V25.0133M13 6.33333V10.3333C13 11.0406 12.719 11.7189 12.219 12.219C11.7189 12.719 11.0406 13 10.3333 13H6.33333M1 13H1.01333M13 1H13.0133M13 18.3333V18.3467M18.3333 13H19.6667M25 13V13.0133M13 25V23.6667" stroke="#0A3967" stroke-width="2" stroke-linecap="round" stroke-linejoin="round"/>
</svg>
