<svg width="41" height="40" viewBox="0 0 41 40" fill="none" xmlns="http://www.w3.org/2000/svg">
<rect x="0.839294" width="40" height="40" rx="20" fill="#0A3967"/>
<path d="M30.2453 8.99665C30.2434 8.58244 29.9062 8.24816 29.492 8.25001C29.0777 8.25186 28.7435 8.58914 28.7453 9.00335L28.7542 10.9891C28.7576 11.757 28.7589 12.2858 28.7207 12.6893C26.7584 10.5748 23.9532 9.25 20.8393 9.25C14.9022 9.25 10.0893 14.0629 10.0893 20C10.0893 20.4142 10.4251 20.75 10.8393 20.75C11.2535 20.75 11.5893 20.4142 11.5893 20C11.5893 14.8914 15.7307 10.75 20.8393 10.75C23.5888 10.75 26.0575 11.9487 27.7528 13.8545C27.7036 13.8622 27.6501 13.8693 27.592 13.8757C27.1806 13.9206 26.6369 13.9193 25.8275 13.9157L23.8418 13.9069C23.4276 13.905 23.0903 14.2393 23.0885 14.6535C23.0866 15.0677 23.4209 15.405 23.8351 15.4068L25.8641 15.4159C26.619 15.4193 27.2486 15.4221 27.7548 15.3668C28.2857 15.3089 28.7751 15.1793 29.2001 14.8503C29.383 14.7088 29.5472 14.5446 29.6887 14.3617C30.0177 13.9366 30.1473 13.4473 30.2053 12.9163C30.2606 12.4102 30.2577 11.7806 30.2544 11.0257L30.2453 8.99665Z" fill="#E4EDFF"/>
<path d="M31.5893 20C31.5893 19.5858 31.2535 19.25 30.8393 19.25C30.4251 19.25 30.0893 19.5858 30.0893 20C30.0893 25.1086 25.9479 29.25 20.8393 29.25C18.0506 29.25 15.5507 28.0169 13.8537 26.0636C13.9001 26.0564 13.9503 26.0498 14.0045 26.0439C14.4158 25.999 14.9595 26.0003 15.7689 26.0039L17.7546 26.0127C18.1689 26.0146 18.5061 25.6803 18.508 25.2661C18.5098 24.8519 18.1755 24.5146 17.7613 24.5127L15.7323 24.5037C14.9775 24.5003 14.3478 24.4975 13.8416 24.5528C13.3107 24.6107 12.8214 24.7403 12.3963 25.0693C12.2134 25.2108 12.0492 25.375 11.9077 25.5579C11.5787 25.983 11.4491 26.4723 11.3912 27.0032C11.3359 27.5094 11.3387 28.139 11.3421 28.8939L11.3511 30.9229C11.353 31.3371 11.6903 31.6714 12.1045 31.6696C12.5187 31.6677 12.853 31.3305 12.8511 30.9162L12.8423 28.9305C12.8388 28.1573 12.8375 27.6266 12.8765 27.2221C14.8422 29.3881 17.6821 30.75 20.8393 30.75C26.7764 30.75 31.5893 25.9371 31.5893 20Z" fill="#E4EDFF"/>
</svg>
