<svg width="40" height="40" viewBox="0 0 40 40" fill="none" xmlns="http://www.w3.org/2000/svg">
<rect width="40" height="40" rx="20" fill="#0A3967"/>
<path d="M26 30C25.1667 30 24.4583 29.7083 23.875 29.125C23.2917 28.5417 23 27.8333 23 27C23 26.8833 23.0083 26.7623 23.025 26.637C23.0417 26.5117 23.0667 26.3993 23.1 26.3L16.05 22.2C15.7667 22.45 15.45 22.646 15.1 22.788C14.75 22.93 14.3833 23.0007 14 23C13.1667 23 12.4583 22.7083 11.875 22.125C11.2917 21.5417 11 20.8333 11 20C11 19.1667 11.2917 18.4583 11.875 17.875C12.4583 17.2917 13.1667 17 14 17C14.3833 17 14.75 17.071 15.1 17.213C15.45 17.355 15.7667 17.5507 16.05 17.8L23.1 13.7C23.0667 13.6 23.0417 13.4877 23.025 13.363C23.0083 13.2383 23 13.1173 23 13C23 12.1667 23.2917 11.4583 23.875 10.875C24.4583 10.2917 25.1667 10 26 10C26.8333 10 27.5417 10.2917 28.125 10.875C28.7083 11.4583 29 12.1667 29 13C29 13.8333 28.7083 14.5417 28.125 15.125C27.5417 15.7083 26.8333 16 26 16C25.6167 16 25.25 15.9293 24.9 15.788C24.55 15.6467 24.2333 15.4507 23.95 15.2L16.9 19.3C16.9333 19.4 16.9583 19.5127 16.975 19.638C16.9917 19.7633 17 19.884 17 20C17 20.116 16.9917 20.237 16.975 20.363C16.9583 20.489 16.9333 20.6013 16.9 20.7L23.95 24.8C24.2333 24.55 24.55 24.3543 24.9 24.213C25.25 24.0717 25.6167 24.0007 26 24C26.8333 24 27.5417 24.2917 28.125 24.875C28.7083 25.4583 29 26.1667 29 27C29 27.8333 28.7083 28.5417 28.125 29.125C27.5417 29.7083 26.8333 30 26 30Z" fill="#E4EDFF"/>
</svg>
