<svg width="24" height="24" viewBox="0 0 24 24" fill="none" xmlns="http://www.w3.org/2000/svg">
<path d="M13.472 17.5327C13.7662 17.8243 14.2411 17.8222 14.5327 17.528C14.8243 17.2338 14.8222 16.7589 14.528 16.4673L12.765 14.72C12.0495 14.0109 11.5587 13.5228 11.2266 13.1093C10.904 12.7076 10.7933 12.4496 10.7639 12.2185C10.7454 12.0734 10.7454 11.9266 10.7639 11.7815C10.7933 11.5504 10.904 11.2924 11.2266 10.8907C11.5587 10.4772 12.0495 9.98914 12.765 9.28L14.528 7.53269C14.8222 7.24111 14.8243 6.76624 14.5327 6.47204C14.2411 6.17784 13.7662 6.17573 13.472 6.46731L11.6773 8.24611C11.0013 8.91604 10.4489 9.46359 10.0571 9.95146C9.64963 10.4588 9.3547 10.9737 9.27591 11.5918C9.24136 11.8629 9.24136 12.1371 9.27591 12.4082C9.3547 13.0263 9.64963 13.5412 10.0571 14.0485C10.4489 14.5364 11.0013 15.0839 11.6773 15.7539L13.472 17.5327Z" fill="white"/>
<path fill-rule="evenodd" clip-rule="evenodd" d="M12 22.75C17.9371 22.75 22.75 17.9371 22.75 12C22.75 6.06294 17.9371 1.25 12 1.25C6.06294 1.25 1.25 6.06294 1.25 12C1.25 17.9371 6.06294 22.75 12 22.75ZM21.25 12C21.25 17.1086 17.1086 21.25 12 21.25C6.89137 21.25 2.75 17.1086 2.75 12C2.75 6.89136 6.89137 2.75 12 2.75C17.1086 2.75 21.25 6.89137 21.25 12Z" fill="white"/>
</svg>
