<svg width="24" height="24" viewBox="0 0 24 24" fill="none" xmlns="http://www.w3.org/2000/svg">
<g clip-path="url(#clip0_177_317)">
<path d="M8.12201 3.47065C8.78701 2.80465 9.90601 3.23065 9.99401 4.13265L10 4.24765V20.0067C9.99972 20.2615 9.90213 20.5067 9.72716 20.692C9.55219 20.8774 9.31305 20.9889 9.05861 21.0038C8.80417 21.0188 8.55363 20.936 8.35817 20.7724C8.16272 20.6088 8.03711 20.3767 8.00701 20.1237L8.00001 20.0067V6.42065L5.70701 8.71365C5.52705 8.893 5.28557 8.99713 5.03162 9.00488C4.77767 9.01264 4.53029 8.92344 4.33973 8.7554C4.14916 8.58737 4.0297 8.3531 4.00561 8.10018C3.98151 7.84726 4.05459 7.59464 4.21001 7.39365L4.29301 7.29965L8.12301 3.46965L8.12201 3.47065ZM15 3.00665C15.2449 3.00669 15.4813 3.09661 15.6644 3.25937C15.8474 3.42213 15.9643 3.6464 15.993 3.88965L16 4.00665V17.5927L18.293 15.2997C18.473 15.1203 18.7144 15.0162 18.9684 15.0084C19.2223 15.0007 19.4697 15.0899 19.6603 15.2579C19.8509 15.4259 19.9703 15.6602 19.9944 15.9131C20.0185 16.166 19.9454 16.4187 19.79 16.6197L19.707 16.7137L15.877 20.5437C15.213 21.2087 14.094 20.7827 14.006 19.8807L14 19.7657V4.00665C14 3.74144 14.1054 3.48708 14.2929 3.29955C14.4804 3.11201 14.7348 3.00665 15 3.00665Z" fill="#0A3967"/>
</g>
<defs>
<clipPath id="clip0_177_317">
<rect width="24" height="24" fill="white" transform="translate(0 0.00665283)"/>
</clipPath>
</defs>
</svg>
