<svg width="40" height="40" viewBox="0 0 40 40" fill="none" xmlns="http://www.w3.org/2000/svg">
<g clip-path="url(#clip0_3338_6033)">
<path d="M28.001 22.0006C28.2559 22.0009 28.5011 22.0985 28.6864 22.2735C28.8718 22.4485 28.9833 22.6876 28.9983 22.9421C29.0132 23.1966 28.9304 23.4471 28.7668 23.6426C28.6032 23.8381 28.3711 23.9637 28.118 23.9938L28.001 24.0008H14.4133L16.7066 26.294C16.886 26.4739 16.9901 26.7154 16.9979 26.9694C17.0056 27.2234 16.9164 27.4708 16.7484 27.6613C16.5803 27.8519 16.346 27.9714 16.093 27.9955C15.8401 28.0196 15.5874 27.9465 15.3864 27.7911L15.2924 27.7081L11.4619 23.8778C10.7969 23.2137 11.2229 22.0946 12.125 22.0066L12.24 22.0006H28.001ZM23.2934 12.2929C23.4656 12.1207 23.6947 12.0173 23.9378 12.002C24.1809 11.9867 24.4211 12.0606 24.6136 12.2099L24.7076 12.2929L28.5381 16.1232C29.2031 16.7872 28.7771 17.9063 27.875 17.9943L27.76 18.0003H11.999C11.7441 18 11.4989 17.9024 11.3136 17.7275C11.1282 17.5525 11.0167 17.3133 11.0017 17.0589C10.9868 16.8044 11.0696 16.5538 11.2332 16.3584C11.3968 16.1629 11.6289 16.0373 11.882 16.0072L11.999 16.0002H25.5867L23.2934 13.707C23.1059 13.5195 23.0006 13.2651 23.0006 12.9999C23.0006 12.7348 23.1059 12.4804 23.2934 12.2929Z" fill="white"/>
</g>
<defs>
<clipPath id="clip0_3338_6033">
<rect width="40" height="40" fill="white"/>
</clipPath>
</defs>
</svg>
