<svg width="24" height="24" viewBox="0 0 24 24" fill="none" xmlns="http://www.w3.org/2000/svg">
<g clip-path="url(#clip0_4134_10497)">
<path d="M15.0625 0.486816V9.86182L22.875 5.17432L15.0625 0.486816Z" fill="white"/>
<path d="M21.3125 9.86182V16.1118H2.5625V3.61182H10.375V2.04932H2.5625C2.1481 2.04932 1.75067 2.21394 1.45765 2.50696C1.16462 2.79999 1 3.19742 1 3.61182V16.1118C1 16.5262 1.16462 16.9236 1.45765 17.2167C1.75067 17.5097 2.1481 17.6743 2.5625 17.6743H8.8125V20.7993H5.6875V22.3618H18.1875V20.7993H15.0625V17.6743H21.3125C21.7269 17.6743 22.1243 17.5097 22.4174 17.2167C22.7104 16.9236 22.875 16.5262 22.875 16.1118V9.86182H21.3125ZM13.5 20.7993H10.375V17.6743H13.5V20.7993Z" fill="white"/>
</g>
<defs>
<clipPath id="clip0_4134_10497">
<rect width="24" height="24" fill="white" transform="translate(0 -0.0065918)"/>
</clipPath>
</defs>
</svg>
