<svg width="24" height="24" viewBox="0 0 24 24" fill="none" xmlns="http://www.w3.org/2000/svg">
<g clip-path="url(#clip0_370_1318)">
<path d="M15.0625 0.5V9.875L22.875 5.1875L15.0625 0.5Z" fill="black"/>
<path d="M21.3125 9.875V16.125H2.5625V3.625H10.375V2.0625H2.5625C2.1481 2.0625 1.75067 2.22712 1.45765 2.52015C1.16462 2.81317 1 3.2106 1 3.625V16.125C1 16.5394 1.16462 16.9368 1.45765 17.2299C1.75067 17.5229 2.1481 17.6875 2.5625 17.6875H8.8125V20.8125H5.6875V22.375H18.1875V20.8125H15.0625V17.6875H21.3125C21.7269 17.6875 22.1243 17.5229 22.4174 17.2299C22.7104 16.9368 22.875 16.5394 22.875 16.125V9.875H21.3125ZM13.5 20.8125H10.375V17.6875H13.5V20.8125Z" fill="black"/>
</g>
<defs>
<clipPath id="clip0_370_1318">
<rect width="24" height="24" fill="white" transform="translate(0 0.00665283)"/>
</clipPath>
</defs>
</svg>
