<svg width="31" height="30" viewBox="0 0 31 30" fill="none" xmlns="http://www.w3.org/2000/svg">
<g clip-path="url(#clip0_1008_2705)">
<path d="M15.5 5.9375C9.04166 5.9375 3.52625 9.69542 1.29166 15C3.52625 20.3046 9.04166 24.0625 15.5 24.0625C21.9583 24.0625 27.4737 20.3046 29.7083 15C27.4737 9.69542 21.9583 5.9375 15.5 5.9375ZM15.5 21.0417C11.935 21.0417 9.04166 18.335 9.04166 15C9.04166 11.665 11.935 8.95833 15.5 8.95833C19.065 8.95833 21.9583 11.665 21.9583 15C21.9583 18.335 19.065 21.0417 15.5 21.0417ZM15.5 11.375C13.3558 11.375 11.625 12.9942 11.625 15C11.625 17.0058 13.3558 18.625 15.5 18.625C17.6442 18.625 19.375 17.0058 19.375 15C19.375 12.9942 17.6442 11.375 15.5 11.375Z" fill="white"/>
</g>
<defs>
<clipPath id="clip0_1008_2705">
<rect width="31" height="29" fill="white" transform="translate(0 0.5)"/>
</clipPath>
</defs>
</svg>
