<svg width="24" height="24" viewBox="0 0 24 24" fill="none" xmlns="http://www.w3.org/2000/svg">
<g clip-path="url(#clip0_4134_10521)">
<g clip-path="url(#clip1_4134_10521)">
<path d="M7.25399 18.4874L7.97799 18.9104C9.19888 19.6226 10.5876 19.9965 12.001 19.9934C13.5832 19.9934 15.13 19.5242 16.4456 18.6452C17.7611 17.7661 18.7865 16.5167 19.392 15.0549C19.9975 13.5931 20.156 11.9845 19.8473 10.4327C19.5386 8.88084 18.7767 7.45537 17.6578 6.33655C16.539 5.21773 15.1136 4.45581 13.5617 4.14713C12.0099 3.83844 10.4013 3.99687 8.93952 4.60237C7.47772 5.20787 6.22829 6.23325 5.34924 7.54885C4.47018 8.86444 4.00099 10.4112 4.00099 11.9934C3.99807 13.4073 4.37226 14.7963 5.08499 16.0174L5.50699 16.7414L4.85399 19.1424L7.25399 18.4874ZM2.00499 21.9934L3.35699 17.0254C2.46595 15.4983 1.99789 13.7614 2.00099 11.9934C2.00099 6.47041 6.47799 1.99341 12.001 1.99341C17.524 1.99341 22.001 6.47041 22.001 11.9934C22.001 17.5164 17.524 21.9934 12.001 21.9934C10.2337 21.9965 8.49757 21.5288 6.97099 20.6384L2.00499 21.9934ZM8.39199 7.30141C8.52666 7.29208 8.66099 7.29074 8.79499 7.29741C8.84899 7.30141 8.90299 7.30674 8.95699 7.31341C9.11599 7.33141 9.29099 7.42841 9.34999 7.56241C9.64799 8.23907 9.93733 8.91908 10.218 9.60241C10.28 9.75441 10.243 9.94941 10.125 10.1394C10.065 10.2364 9.97099 10.3724 9.86199 10.5114C9.74899 10.6564 9.50599 10.9224 9.50599 10.9224C9.50599 10.9224 9.40699 11.0404 9.44499 11.1874C9.45899 11.2434 9.50499 11.3244 9.54699 11.3924L9.60599 11.4874C9.86199 11.9144 10.206 12.3474 10.626 12.7554C10.746 12.8714 10.863 12.9904 10.989 13.1014C11.457 13.5144 11.987 13.8514 12.559 14.1014L12.564 14.1034C12.649 14.1404 12.692 14.1604 12.816 14.2134C12.878 14.2394 12.9417 14.2614 13.007 14.2794C13.031 14.2861 13.0553 14.2897 13.08 14.2904C13.137 14.2926 13.1937 14.2808 13.2451 14.256C13.2965 14.2313 13.3411 14.1943 13.375 14.1484C14.098 13.2724 14.165 13.2154 14.17 13.2154V13.2174C14.2202 13.1704 14.28 13.1347 14.3452 13.1128C14.4104 13.0909 14.4796 13.0833 14.548 13.0904C14.6093 13.0931 14.6683 13.1064 14.725 13.1304C15.256 13.3734 16.125 13.7524 16.125 13.7524L16.707 14.0134C16.805 14.0604 16.894 14.1714 16.897 14.2784C16.901 14.3454 16.907 14.4534 16.884 14.6514C16.852 14.9104 16.774 15.2214 16.696 15.3844C16.6419 15.4953 16.5711 15.5971 16.486 15.6864C16.385 15.7923 16.2745 15.8887 16.156 15.9744C16.0733 16.0357 16.0317 16.0657 16.031 16.0644C15.9066 16.1433 15.7788 16.2168 15.648 16.2844C15.3904 16.4209 15.1061 16.4994 14.815 16.5144C14.63 16.5244 14.445 16.5384 14.259 16.5284C14.251 16.5284 13.691 16.4414 13.691 16.4414C12.2693 16.0674 10.9544 15.3668 9.85099 14.3954C9.62499 14.1964 9.41499 13.9824 9.20099 13.7694C8.31299 12.8844 7.63999 11.9294 7.23099 11.0274C7.02349 10.5846 6.91108 10.1033 6.90099 9.61441C6.89723 9.00715 7.09605 8.41598 7.46599 7.93441C7.53899 7.84041 7.60799 7.74241 7.72699 7.62941C7.85299 7.50941 7.93399 7.44541 8.02099 7.40141C8.13703 7.34441 8.26302 7.31045 8.39199 7.30141Z" fill="white"/>
</g>
</g>
<defs>
<clipPath id="clip0_4134_10521">
<rect width="24" height="24" fill="white"/>
</clipPath>
<clipPath id="clip1_4134_10521">
<rect width="24" height="24" fill="white" transform="translate(0 -0.0065918)"/>
</clipPath>
</defs>
</svg>
