<svg width="24" height="24" viewBox="0 0 24 24" fill="none" xmlns="http://www.w3.org/2000/svg">
<g clip-path="url(#clip0_192_148)">
<g clip-path="url(#clip1_192_148)">
<path d="M7.25399 18.494L7.97799 18.917C9.19888 19.6292 10.5876 20.003 12.001 20C13.5832 20 15.13 19.5308 16.4456 18.6518C17.7611 17.7727 18.7865 16.5233 19.392 15.0615C19.9975 13.5997 20.156 11.9911 19.8473 10.4393C19.5386 8.88743 18.7767 7.46197 17.6578 6.34315C16.539 5.22433 15.1136 4.4624 13.5617 4.15372C12.0099 3.84504 10.4013 4.00346 8.93952 4.60896C7.47772 5.21447 6.22829 6.23984 5.34924 7.55544C4.47018 8.87103 4.00099 10.4177 4.00099 12C3.99807 13.4139 4.37226 14.8029 5.08499 16.024L5.50699 16.748L4.85399 19.149L7.25399 18.494ZM2.00499 22L3.35699 17.032C2.46595 15.5049 1.99789 13.768 2.00099 12C2.00099 6.477 6.47799 2 12.001 2C17.524 2 22.001 6.477 22.001 12C22.001 17.523 17.524 22 12.001 22C10.2337 22.003 8.49757 21.5353 6.97099 20.645L2.00499 22ZM8.39199 7.308C8.52666 7.29867 8.66099 7.29733 8.79499 7.304C8.84899 7.308 8.90299 7.31333 8.95699 7.32C9.11599 7.338 9.29099 7.435 9.34999 7.569C9.64799 8.24567 9.93733 8.92567 10.218 9.609C10.28 9.761 10.243 9.956 10.125 10.146C10.065 10.243 9.97099 10.379 9.86199 10.518C9.74899 10.663 9.50599 10.929 9.50599 10.929C9.50599 10.929 9.40699 11.047 9.44499 11.194C9.45899 11.25 9.50499 11.331 9.54699 11.399L9.60599 11.494C9.86199 11.921 10.206 12.354 10.626 12.762C10.746 12.878 10.863 12.997 10.989 13.108C11.457 13.521 11.987 13.858 12.559 14.108L12.564 14.11C12.649 14.147 12.692 14.167 12.816 14.22C12.878 14.246 12.9417 14.268 13.007 14.286C13.031 14.2927 13.0553 14.2963 13.08 14.297C13.137 14.2992 13.1937 14.2874 13.2451 14.2626C13.2965 14.2379 13.3411 14.2009 13.375 14.155C14.098 13.279 14.165 13.222 14.17 13.222V13.224C14.2202 13.177 14.28 13.1413 14.3452 13.1194C14.4104 13.0975 14.4796 13.0898 14.548 13.097C14.6093 13.0997 14.6683 13.113 14.725 13.137C15.256 13.38 16.125 13.759 16.125 13.759L16.707 14.02C16.805 14.067 16.894 14.178 16.897 14.285C16.901 14.352 16.907 14.46 16.884 14.658C16.852 14.917 16.774 15.228 16.696 15.391C16.6419 15.5019 16.5711 15.6037 16.486 15.693C16.385 15.7989 16.2745 15.8953 16.156 15.981C16.0733 16.0423 16.0317 16.0723 16.031 16.071C15.9066 16.1499 15.7788 16.2233 15.648 16.291C15.3904 16.4275 15.1061 16.506 14.815 16.521C14.63 16.531 14.445 16.545 14.259 16.535C14.251 16.535 13.691 16.448 13.691 16.448C12.2693 16.074 10.9544 15.3734 9.85099 14.402C9.62499 14.203 9.41499 13.989 9.20099 13.776C8.31299 12.891 7.63999 11.936 7.23099 11.034C7.02349 10.5912 6.91108 10.1099 6.90099 9.621C6.89723 9.01375 7.09605 8.42257 7.46599 7.941C7.53899 7.847 7.60799 7.749 7.72699 7.636C7.85299 7.516 7.93399 7.452 8.02099 7.408C8.13703 7.351 8.26302 7.31704 8.39199 7.308Z" fill="black"/>
</g>
</g>
<defs>
<clipPath id="clip0_192_148">
<rect width="24" height="24" fill="white" transform="translate(0 0.00665283)"/>
</clipPath>
<clipPath id="clip1_192_148">
<rect width="24" height="24" fill="white"/>
</clipPath>
</defs>
</svg>
