<svg width="126" height="114" viewBox="0 0 126 114" fill="none" xmlns="http://www.w3.org/2000/svg">
<path d="M80.5 10.8304L122.381 80.5866C128.4 90.6054 125.444 103.787 115.775 110.024C112.53 112.125 108.747 113.245 104.881 113.249H21.1125C9.73125 113.249 0.5 103.687 0.5 91.8804C0.5 87.8866 1.58125 83.9804 3.6125 80.5866L45.5 10.8304C51.5125 0.811615 64.225 -2.25714 73.8938 3.98036C76.5688 5.70536 78.8313 8.04912 80.5 10.8304ZM63 88.2491C64.6576 88.2491 66.2473 87.5906 67.4194 86.4185C68.5915 85.2464 69.25 83.6567 69.25 81.9991C69.25 80.3415 68.5915 78.7518 67.4194 77.5797C66.2473 76.4076 64.6576 75.7491 63 75.7491C61.3424 75.7491 59.7527 76.4076 58.5806 77.5797C57.4085 78.7518 56.75 80.3415 56.75 81.9991C56.75 83.6567 57.4085 85.2464 58.5806 86.4185C59.7527 87.5906 61.3424 88.2491 63 88.2491ZM63 31.9991C61.3424 31.9991 59.7527 32.6576 58.5806 33.8297C57.4085 35.0018 56.75 36.5915 56.75 38.2491V63.2491C56.75 64.9067 57.4085 66.4964 58.5806 67.6685C59.7527 68.8406 61.3424 69.4991 63 69.4991C64.6576 69.4991 66.2473 68.8406 67.4194 67.6685C68.5915 66.4964 69.25 64.9067 69.25 63.2491V38.2491C69.25 36.5915 68.5915 35.0018 67.4194 33.8297C66.2473 32.6576 64.6576 31.9991 63 31.9991Z" fill="#CB3A31"/>
</svg>
